<svg xmlns="http://www.w3.org/2000/svg" width="45" height="45" viewBox="0 0 45 45">
    <g fill="none" fill-rule="evenodd">
        <g>
            <g>
                <path fill="#EAEDF5" d="M45 22.5C45 34.927 34.926 45 22.499 45 10.073 45 0 34.927 0 22.501 0 10.074 10.074 0 22.501 0 34.927 0 45 10.074 45 22.5" transform="translate(-434.000000, -743.000000) translate(434.000000, 743.000000)"/>
                <g fill-rule="nonzero">
                    <path fill="#FFF" d="M21 11V4.179C21 2.423 22.343 1 24 1s3 1.423 3 3.179v5.496c0 .732-.56 1.325-1.25 1.325H21z" transform="translate(-434.000000, -743.000000) translate(434.000000, 743.000000) translate(17.000000, 8.000000)"/>
                    <path fill="#FFF" d="M25 1H3.954C2.322 1 1 2.325 1 3.959v22.808C1 27.448 1.551 28 2.23 28h19.816V3.959C22.046 2.325 23.37 1 25 1" transform="translate(-434.000000, -743.000000) translate(434.000000, 743.000000) translate(17.000000, 8.000000)"/>
                    <path fill="#CEF" d="M15.51 31l-.988-2.226c-.345-.777-.522-1.612-.522-2.454v-4.888c0-.738.637-1.337 1.423-1.337.613 0 1.157.369 1.35.915l1.012 2.85c.244.688.93 1.152 1.702 1.152.99 0 1.793-.754 1.793-1.685V11l2.042 1.914C25.036 14.522 26 16.704 26 18.98v6.7c0 1.841-.436 3.658-1.275 5.321" transform="translate(-434.000000, -743.000000) translate(434.000000, 743.000000) translate(17.000000, 8.000000)"/>
                    <g fill="#CEF">
                        <path d="M3.375 4H.625C.28 4 0 3.72 0 3.375V.625C0 .28.28 0 .625 0h2.75C3.72 0 4 .28 4 .625v2.75C4 3.72 3.72 4 3.375 4zM3.375 11.5H.625C.28 11.5 0 11.22 0 10.875v-2.75C0 7.78.28 7.5.625 7.5h2.75c.345 0 .625.28.625.625v2.75c0 .345-.28.625-.625.625zM3.375 19H.625C.28 19 0 18.72 0 18.375v-2.75C0 15.28.28 15 .625 15h2.75c.345 0 .625.28.625.625v2.75c0 .345-.28.625-.625.625z" transform="translate(-434.000000, -743.000000) translate(434.000000, 743.000000) translate(17.000000, 8.000000) translate(4.000000, 4.000000)"/>
                    </g>
                    <path fill="#505050" d="M24.454 0H3.546C1.59 0 0 1.626 0 3.625V26.75c0 1.034.823 1.875 1.834 1.875h8.03c.337 0 .61-.28.61-.625s-.273-.625-.61-.625h-8.03c-.337 0-.611-.28-.611-.625V3.625c0-1.31 1.042-2.375 2.323-2.375h18.233c-.542.637-.87 1.467-.87 2.375v20.142c0 .576-.46 1.045-1.024 1.045-.44 0-.83-.287-.97-.715l-.921-2.826c-.26-.798-.988-1.334-1.81-1.334-1.053 0-1.909.875-1.909 1.95v.162h-3.169c-.337 0-.61.28-.61.625s.273.625.61.625h3.17v3.435c0 .923.175 1.823.522 2.674l.9 2.207c.098.24.325.385.564.385.079 0 .158-.015.235-.048.312-.133.46-.499.33-.817l-.9-2.207c-.285-.699-.43-1.437-.43-2.194v-4.846c0-.386.308-.7.686-.7.296 0 .557.192.65.479l.922 2.826c.306.938 1.162 1.57 2.13 1.57 1.239 0 2.246-1.03 2.246-2.296V13.05l.817.834c1.458 1.487 2.26 3.466 2.26 5.57V26.1c0 1.72-.381 3.452-1.102 5.007-.145.312-.015.685.29.832.305.148.67.016.814-.296.799-1.722 1.221-3.638 1.221-5.543v-6.644c0-2.44-.93-4.733-2.62-6.456l-1.68-1.715v-.598h4.035c1.011 0 1.834-.84 1.834-1.874V3.625C28 1.626 26.41 0 24.454 0zm2.323 8.813c0 .344-.274.624-.611.624H22.13V3.625c0-1.31 1.042-2.375 2.323-2.375s2.323 1.065 2.323 2.375v5.188z" transform="translate(-434.000000, -743.000000) translate(434.000000, 743.000000) translate(17.000000, 8.000000)"/>
                    <path fill="#505050" d="M13 27c-.263 0-.521.107-.707.293-.186.186-.293.444-.293.707 0 .263.107.521.293.707.186.186.444.293.707.293.263 0 .52-.107.707-.293.186-.186.293-.444.293-.707 0-.263-.107-.52-.293-.707-.186-.186-.444-.293-.707-.293zM8 5.429C8 4.64 7.466 4 6.81 4H4.19C3.534 4 3 4.64 3 5.429V8.57C3 9.36 3.534 10 4.19 10h2.62C7.466 10 8 9.36 8 8.571V5.43zM6.81 8.57H4.19V5.43h2.62V8.57zM8 12.429C8 11.64 7.466 11 6.81 11H4.19C3.534 11 3 11.64 3 12.429v3.142C3 16.36 3.534 17 4.19 17h2.62C7.466 17 8 16.36 8 15.571V12.43zM6.81 15.57H4.19V12.43h2.62v3.142zM6.81 18H4.19C3.534 18 3 18.64 3 19.429v3.142C3 23.36 3.534 24 4.19 24h2.62C7.466 24 8 23.36 8 22.571V19.43C8 18.64 7.466 18 6.81 18zm0 4.571H4.19V19.43h2.62v3.142zM17.325 9c.373 0 .675-.448.675-1s-.302-1-.675-1h-4.65C12.302 7 12 7.448 12 8s.302 1 .675 1h4.65zM11 9c.263 0 .521-.107.707-.293.186-.186.293-.444.293-.707 0-.263-.107-.521-.293-.707C11.521 7.107 11.263 7 11 7c-.264 0-.521.107-.707.293-.187.186-.293.444-.293.707 0 .263.106.521.293.707.186.186.443.293.707.293zM10.668 16h7.664c.369 0 .668-.448.668-1s-.3-1-.668-1h-7.664c-.369 0-.668.448-.668 1s.3 1 .668 1z" transform="translate(-434.000000, -743.000000) translate(434.000000, 743.000000) translate(17.000000, 8.000000)"/>
                </g>
            </g>
        </g>
    </g>
</svg>
