<svg xmlns="http://www.w3.org/2000/svg" width="13" height="15" viewBox="0 0 13 15">
    <g fill="none" fill-rule="evenodd">
        <g fill="#2F3441">
            <g>
                <g>
                    <path d="M359.756 404.3h2.064c-.63-.294-1.216-.68-1.756-1.158-.661-.596-1.17-1.288-1.528-2.076-.357-.787-.536-1.68-.536-2.677 0-.997.16-1.9.479-2.712.32-.811.772-1.504 1.357-2.08.585-.575 1.289-1.019 2.11-1.332.319-.118.65-.212.992-.283v-1.026l.866-.956v1.84c.297-.029.605-.044.924-.044.357 0 .707.021 1.05.062v-.902l.854-.956v2.009c.297.07.582.16.856.265.828.313 1.524.755 2.087 1.328.562.572.927 1.099 1.094 1.58.168.48.278.883.331 1.207l-.924.761c-.06-.507-.176-1.02-.347-1.54-.172-.519-.489-1.035-.953-1.548-.463-.513-1.041-.906-1.733-1.177-.137-.053-.274-.103-.41-.15v3.99l-.856.7v-4.876c-.334-.053-.684-.08-1.049-.08-.32 0-.627.018-.924.053v4.204l-.866.699v-4.726c-.913.248-1.684.7-2.315 1.354-1.004 1.068-1.505 2.513-1.505 4.336 0 .909.15 1.714.45 2.416.3.702.732 1.322 1.294 1.859.563.537 1.19.947 1.882 1.23.555.23 1.16.366 1.813.407h5.12l-.73.699H358.89l.867-.7z" transform="translate(-859.000000, -747.000000) translate(330.000000, 157.000000) translate(171.000000, 200.000000)"/>
                </g>
            </g>
        </g>
    </g>
</svg>
