<svg xmlns="http://www.w3.org/2000/svg" width="78" height="78" viewBox="0 0 78 78">
    <g fill="none" fill-rule="evenodd">
        <g>
            <g>
                <g>
                    <path fill="#EAEDF5" d="M77 39.5C77 60.763 59.763 78 38.5 78S0 60.763 0 39.5 17.237 1 38.5 1 77 18.237 77 39.5" transform="translate(-641.000000, -256.000000) translate(367.000000, 217.000000) translate(274.000000, 39.000000)"/>
                    <g>
                        <path fill="#CEF" d="M36 9V6.09C36 3.28 33.697.554 30.857.554H5.143C2.303.553 0 3.28 0 6.091V9h36z" transform="translate(-641.000000, -256.000000) translate(367.000000, 217.000000) translate(274.000000, 39.000000) translate(22.000000, 6.000000)"/>
                        <path stroke="#2F3441" d="M35.5 9.5V6.147C35.5 3.028 33.112.5 30.167.5H5.833C2.888.5.5 3.028.5 6.147V9.5h35z" transform="translate(-641.000000, -256.000000) translate(367.000000, 217.000000) translate(274.000000, 39.000000) translate(22.000000, 6.000000)"/>
                        <path fill="#CEF" d="M1 54v5.667C1 62.213 3.612 64.5 6 64.5h24c2.388 0 5-2.287 5-4.833V54H1z" transform="translate(-641.000000, -256.000000) translate(367.000000, 217.000000) translate(274.000000, 39.000000) translate(22.000000, 6.000000)"/>
                        <path stroke="#2F3441" d="M.5 53.5v6c0 2.626 2.953 5 5.5 5h24c2.547 0 5.5-2.374 5.5-5v-6H.5z" transform="translate(-641.000000, -256.000000) translate(367.000000, 217.000000) translate(274.000000, 39.000000) translate(22.000000, 6.000000)"/>
                        <path fill="#FFF" d="M0 54L36 54 36 9 0 9z" transform="translate(-641.000000, -256.000000) translate(367.000000, 217.000000) translate(274.000000, 39.000000) translate(22.000000, 6.000000)"/>
                        <path stroke="#2F3441" d="M36 25.5L36 54 36 54 0 54 0 9 36 9 36 19.5M15 59.5L22 59.5" transform="translate(-641.000000, -256.000000) translate(367.000000, 217.000000) translate(274.000000, 39.000000) translate(22.000000, 6.000000)"/>
                    </g>
                    <g>
                        <path fill="#FFF" d="M38.932 22.12c0 2.143-1.76 3.88-3.932 3.88H17.097L9.5 36.5c-.783.982-2.381.434-2.381-.815l-.068-9.68L3.955 26C1.74 26 0 24.304 0 22.12V3.947C0 1.768 1.79 0 4 0h31c2.21 0 4 1.767 4 3.948l-.068 18.171z" transform="translate(-641.000000, -256.000000) translate(367.000000, 217.000000) translate(274.000000, 39.000000) translate(39.000000, 0.000000)"/>
                        <path stroke="#2F3441" d="M35 .552c.967 0 1.843.386 2.477 1.012C38.11 2.187 38.5 3.05 38.5 4h0v18.09c0 .933-.383 1.777-1.003 2.388-.621.614-1.48.992-2.429.992h0-18.155L8.985 36.19c-.58.327-.762.318-.926.262-.163-.056-.31-.158-.413-.3h0L7.5 25.47H4.023c-.97 0-1.852-.39-2.49-1.021C.896 23.82.5 22.954.5 22h0V4c0-.951.391-1.813 1.023-2.436C2.157.938 3.033.552 4 .552h0z" transform="translate(-641.000000, -256.000000) translate(367.000000, 217.000000) translate(274.000000, 39.000000) translate(39.000000, 0.000000)"/>
                        <path stroke="#2D55D2" d="M5 13.5L10 13.5M13 13.5L18 13.5M21 13.5L26 13.5M29 13.5L34 13.5" transform="translate(-641.000000, -256.000000) translate(367.000000, 217.000000) translate(274.000000, 39.000000) translate(39.000000, 0.000000)"/>
                    </g>
                </g>
            </g>
        </g>
    </g>
</svg>
