<svg xmlns="http://www.w3.org/2000/svg" width="60" height="51" viewBox="0 0 60 51">
    <g fill="none" fill-rule="evenodd">
        <g>
            <g>
                <g>
                    <g>
                        <path fill="#FFF" d="M11 46h38c2.761 0 5-2.239 5-5V15c0-2.762-2.239-5-5-5H11c-2.761 0-5 2.238-5 5v26c0 2.761 2.239 5 5 5z" transform="translate(-598.000000, -449.000000) translate(374.000000, 236.000000) translate(195.000000, 213.000000) translate(29.000000, 0.000000)"/>
                        <path stroke="#2F3441" d="M52 10.5c.966 0 1.841.392 2.475 1.025.633.634 1.025 1.509 1.025 2.475h0v28c0 .966-.392 1.841-1.025 2.475-.634.633-1.509 1.025-2.475 1.025h0H8c-.966 0-1.841-.392-2.475-1.025C4.892 43.84 4.5 42.966 4.5 42h0V14c0-.966.392-1.841 1.025-2.475C6.16 10.892 7.034 10.5 8 10.5h0z" transform="translate(-598.000000, -449.000000) translate(374.000000, 236.000000) translate(195.000000, 213.000000) translate(29.000000, 0.000000)"/>
                        <path fill="#DCE0EB" d="M12 39L30 39 30 19 12 19z" transform="translate(-598.000000, -449.000000) translate(374.000000, 236.000000) translate(195.000000, 213.000000) translate(29.000000, 0.000000)"/>
                        <path stroke="#2F3441" d="M30.5 19.5v20h-19v-20h19z" transform="translate(-598.000000, -449.000000) translate(374.000000, 236.000000) translate(195.000000, 213.000000) translate(29.000000, 0.000000)"/>
                        <path fill="#CEF" d="M21 39h9v-4.872C29.576 33.794 25.179 32 21 32s-8.576 1.794-9 2.128V39h9z" transform="translate(-598.000000, -449.000000) translate(374.000000, 236.000000) translate(195.000000, 213.000000) translate(29.000000, 0.000000)"/>
                        <path stroke="#2F3441" d="M21 32.5c4.133 0 8.484 1.656 9.5 2.206h0V39.5h-19v-4.794c1.016-.55 5.367-2.206 9.5-2.206z" transform="translate(-598.000000, -449.000000) translate(374.000000, 236.000000) translate(195.000000, 213.000000) translate(29.000000, 0.000000)"/>
                        <path fill="#FFF" d="M21 21c-2.2 0-4 2.216-4 4.926v3.15C17 31.783 18.8 34 21 34s4-2.216 4-4.925v-3.15C25 23.216 23.2 21 21 21" transform="translate(-598.000000, -449.000000) translate(374.000000, 236.000000) translate(195.000000, 213.000000) translate(29.000000, 0.000000)"/>
                        <path stroke="#2F3441" d="M20.99 21.5c1.392.057 2.478.568 3.26 1.372.772.796 1.25 1.872 1.25 3.054h0v3.15c0 1.215-.506 2.32-1.32 3.121-.816.804-1.942 1.303-3.18 1.303-1.238 0-2.364-.499-3.18-1.303-.814-.801-1.32-1.906-1.32-3.122h0v-3.15c0-1.216.506-2.32 1.32-3.122.813-.802 1.936-1.3 3.17-1.303zM35 23.5L48 23.5M35 28.5L48 28.5M23 14.5L39 14.5M21 14.5L19 14.5M41 14.5L43 14.5" transform="translate(-598.000000, -449.000000) translate(374.000000, 236.000000) translate(195.000000, 213.000000) translate(29.000000, 0.000000)"/>
                    </g>
                </g>
            </g>
        </g>
    </g>
</svg>
