<svg xmlns="http://www.w3.org/2000/svg" width="88" height="88" viewBox="0 0 88 88">
    <g fill="none" fill-rule="evenodd">
        <g fill="#4D4D4D" fill-rule="nonzero">
            <g>
                <path d="M25.498 75.066c-.395 0-.753.16-1.014.418-.259.258-.421.619-.421 1.014 0 .396.159.756.42 1.015l.052.054c.255.227.593.367.963.367.399 0 .756-.16 1.015-.415l.006-.006c.255-.259.415-.616.415-1.015 0-.399-.16-.759-.415-1.017l-.003.003c-.258-.259-.619-.418-1.018-.418zm-3.18-1.748c.813-.814 1.936-1.318 3.18-1.318 1.241 0 2.37.504 3.184 1.318l-.003.003.003.003c.81.814 1.318 1.937 1.318 3.174 0 1.238-.507 2.361-1.318 3.178l-.006.006c-.814.81-1.94 1.318-3.178 1.318-1.186 0-2.268-.466-3.069-1.215l-.111-.103C21.504 78.87 21 77.74 21 76.498c0-1.244.504-2.367 1.318-3.18zM33.258 77C32.565 77 32 76.326 32 75.498c0-.827.565-1.498 1.258-1.498h6.487c.693 0 1.255.671 1.255 1.498 0 .828-.565 1.502-1.255 1.502h-6.487z" transform="translate(-636.000000, -385.000000) translate(636.000000, 385.000000)"/>
                <path d="M48.997 12.031c0 .76-.62 1.378-1.377 1.378-.76 0-1.38-.616-1.38-1.378V8.48c0-1.572-.648-3.008-1.686-4.042l-.063-.068c-1.036-.997-2.444-1.616-3.988-1.616H8.493c-1.574 0-3.011.647-4.05 1.684C3.405 5.474 2.757 6.91 2.757 8.48v71.042c0 1.573.648 3.005 1.686 4.042l.063.069c1.036.997 2.447 1.615 3.99 1.615H40.51c1.575 0 3.01-.647 4.048-1.684 1.038-1.037 1.686-2.472 1.686-4.042V58.206c0-.76.617-1.378 1.38-1.378.76 0 1.377.618 1.377 1.378V79.52c0 2.334-.958 4.457-2.493 5.99C44.97 87.043 42.847 88 40.51 88H8.494c-2.286 0-4.372-.92-5.904-2.404l-.097-.088C.958 83.978 0 81.856 0 79.52V8.479c0-2.334.958-4.454 2.496-5.99C4.03.957 6.156 0 8.494 0h32.012c2.287 0 4.37.92 5.901 2.403l.098.09c1.534 1.535 2.492 3.654 2.492 5.99v3.548z" transform="translate(-636.000000, -385.000000) translate(636.000000, 385.000000)"/>
                <path d="M42 12.961c0 .765-.624 1.388-1.386 1.388-.765 0-1.389-.62-1.389-1.388V10.77H9.775v54.456h29.45V59.46c0-.764.62-1.387 1.389-1.387.765 0 1.386.623 1.386 1.387v7.154c0 .764-.624 1.387-1.386 1.387H8.389C7.624 68 7 67.377 7 66.613V9.385C7 8.62 7.624 8 8.389 8H40.614C41.379 8 42 8.62 42 9.385v3.576zM9.258 77C8.565 77 8 76.326 8 75.498 8 74.671 8.565 74 9.258 74h6.484c.693 0 1.258.671 1.258 1.498 0 .828-.565 1.502-1.258 1.502H9.258z" transform="translate(-636.000000, -385.000000) translate(636.000000, 385.000000)"/>
                <path d="M38.917 52.039l-8.535 6.667c-.593.464-1.46.368-1.934-.21-.202-.248-.302-.542-.302-.837l-.003-5.73c-1.796-.286-3.408-1.129-4.642-2.334C21.958 48.093 21 46.01 21 43.723v-17.41c0-2.283.961-4.361 2.5-5.867l.007-.003-.003-.002C25.046 18.935 27.179 18 29.52 18h49.961c2.345 0 4.478.938 6.017 2.44l.09.096c1.487 1.5 2.411 3.542 2.411 5.78v17.41c0 2.289-.961 4.37-2.5 5.872-1.543 1.506-3.673 2.443-6.018 2.443H38.917v-.002zM30.9 54.864l6.572-5.134c.25-.241.596-.39.973-.39h41.037c1.577 0 3.019-.635 4.06-1.652 1.042-1.016 1.693-2.423 1.693-3.965v-17.41c0-1.51-.622-2.892-1.623-3.903l-.07-.062c-1.041-1.017-2.483-1.651-4.06-1.651h-49.96c-1.58 0-3.023.634-4.064 1.651v-.003c-1.042 1.02-1.69 2.427-1.69 3.969v17.409c0 1.542.65 2.949 1.693 3.965 1.044 1.02 2.483 1.652 4.063 1.652v.005c.76 0 1.376.604 1.376 1.343v4.176zm54.686-34.328l-.09 1.815c.51-.497.539-1.287.09-1.815z" transform="translate(-636.000000, -385.000000) translate(636.000000, 385.000000)"/>
                <path d="M33.389 39C32.624 39 32 38.326 32 37.5s.624-1.5 1.389-1.5h32.225c.765 0 1.386.674 1.386 1.5s-.624 1.5-1.386 1.5H33.389zM33.367 31C32.614 31 32 30.329 32 29.498c0-.827.614-1.498 1.367-1.498h42.27c.752 0 1.363.674 1.363 1.498 0 .828-.614 1.502-1.364 1.502h-42.27z" transform="translate(-636.000000, -385.000000) translate(636.000000, 385.000000)"/>
            </g>
        </g>
    </g>
</svg>
