<svg xmlns="http://www.w3.org/2000/svg" width="72" height="72" viewBox="0 0 72 72">
    <g fill="none" fill-rule="evenodd">
        <g>
            <g>
                <g>
                    <path fill="#EAEDF5" d="M36 72C16.118 72 0 55.882 0 36S16.118 0 36 0s36 16.118 36 36-16.118 36-36 36z" transform="translate(-466.000000, -255.000000) translate(361.000000, 181.000000) translate(105.000000, 74.000000)"/>
                    <g>
                        <path fill="#CEF" d="M42.078 14.251L42.078 12.489 26.182 0.225 10.286 12.489 10.286 14.251 0 14.251 0 18.926 26.182 18.926 52.364 18.926 52.364 14.251z" transform="translate(-466.000000, -255.000000) translate(361.000000, 181.000000) translate(105.000000, 74.000000) translate(9.350649, 10.285714)"/>
                        <path fill="#EAEDF5" d="M50.494 18.926v3.74h-8.416v15.672h-3.74V25.47c0-1.549-1.256-2.805-2.806-2.805-1.549 0-2.805 1.256-2.805 2.805v12.867h-3.74V25.47c0-1.549-1.256-2.805-2.805-2.805-1.55 0-2.805 1.256-2.805 2.805v12.867h-3.74V25.47c0-1.549-1.256-2.805-2.806-2.805s-2.805 1.256-2.805 2.805v12.867h-3.74V22.666H1.87v-3.74h48.624z" transform="translate(-466.000000, -255.000000) translate(361.000000, 181.000000) translate(105.000000, 74.000000) translate(9.350649, 10.285714)"/>
                        <path stroke="#2F3441" d="M17.299 7.013L1.403 7.013 1.403 11.445 0.468 12.38 0.468 14.494 10.286 14.494 10.286 12.489 26.182 0.225 42.078 12.489 42.078 14.494 51.896 14.494 51.896 12.38 50.961 11.445 50.961 7.013 35.065 7.013" transform="translate(-466.000000, -255.000000) translate(361.000000, 181.000000) translate(105.000000, 74.000000) translate(9.350649, 10.285714)"/>
                        <path stroke="#2F3441" d="M51.896 14.251L51.896 19.169.468 19.169.468 14.494M32.727 38.338V25.714c0-1.55 1.256-2.805 2.805-2.805 1.55 0 2.806 1.256 2.806 2.805v12.624M23.377 38.338V25.714c0-1.55 1.255-2.805 2.805-2.805 1.55 0 2.805 1.256 2.805 2.805v12.624M14.026 38.338V25.714c0-1.55 1.256-2.805 2.805-2.805 1.55 0 2.805 1.256 2.805 2.805v12.624M2.338 45.818L2.338 22.909 9.818 22.909 9.818 38.338M50.026 45.818L50.026 22.909 42.545 22.909 42.545 38.338M8.416 41.61L43.948 41.61M5.61 45.351L46.753 45.351" transform="translate(-466.000000, -255.000000) translate(361.000000, 181.000000) translate(105.000000, 74.000000) translate(9.350649, 10.285714)"/>
                        <path fill="#FFF" d="M29.922 10.51c0 2.066-1.675 3.74-3.74 3.74-2.066 0-3.74-1.674-3.74-3.74 0-2.065 1.674-3.74 3.74-3.74 2.065 0 3.74 1.675 3.74 3.74" transform="translate(-466.000000, -255.000000) translate(361.000000, 181.000000) translate(105.000000, 74.000000) translate(9.350649, 10.285714)"/>
                        <path stroke="#2F3441" d="M29.922 10.51c0 2.066-1.675 3.74-3.74 3.74-2.066 0-3.74-1.674-3.74-3.74 0-2.065 1.674-3.74 3.74-3.74 2.065 0 3.74 1.675 3.74 3.74z" transform="translate(-466.000000, -255.000000) translate(361.000000, 181.000000) translate(105.000000, 74.000000) translate(9.350649, 10.285714)"/>
                    </g>
                </g>
            </g>
        </g>
    </g>
</svg>
