<svg xmlns="http://www.w3.org/2000/svg" width="71" height="83" viewBox="0 0 71 83">
    <g fill="none" fill-rule="evenodd">
        <g fill="#656565" fill-rule="nonzero">
            <g>
                <path d="M37.168 81.366c0 .9-.742 1.634-1.653 1.634-.91 0-1.651-.734-1.651-1.634 0-.9.741-1.634 1.65-1.634.912 0 1.654.734 1.654 1.634zm-36.342 0V79.3c0-10.893 7.466-16.833 10.735-18.773 4.44-2.632 9.21-4.622 14.197-5.93v-2.63c-.831-.726-1.592-1.552-2.263-2.473-1.978-2.71-3.592-5.649-4.809-8.752-1.113-.15-2.131-.851-2.655-1.948-.499-1.045-3.961-7.383-4.492-8.511-1.344-2.86.413-5.684 2.642-6.594.37-.151.752-.263 1.14-.327-.36-1.46-.543-2.963-.543-4.49C14.778 8.466 23.333 0 33.848 0c1.849 0 3.6.7 4.929 1.97.014.013.036.013.05 0C40.158.7 41.908 0 43.757 0c7.147 0 12.961 5.754 12.961 12.826V15.8c0 2.562-.355 5.084-1.057 7.529.397.063.793.166 1.168.334 2.742 1.228 3.812 4.264 2.64 6.594-.559 1.113-3.992 7.465-4.491 8.51-.523 1.097-1.54 1.798-2.653 1.95-1.218 3.11-2.834 6.055-4.816 8.771-.673.922-1.434 1.749-2.266 2.476v2.631c4.987 1.308 9.756 3.298 14.197 5.93 3.269 1.94 10.735 7.88 10.735 18.773v2.067c0 .903-.739 1.634-1.65 1.634H42.944c-.946 0-1.71-.792-1.647-1.743.057-.869.826-1.525 1.705-1.525h23.87c0-6.899-3.5-13.062-9.133-16.402-3.978-2.358-8.237-4.17-12.687-5.4-.89 4.414-4.835 7.751-9.553 7.751-4.718 0-8.663-3.337-9.553-7.75-4.449 1.228-8.71 3.04-12.687 5.399-5.633 3.34-9.132 9.313-9.132 16.402h23.958c.948 0 1.711.796 1.646 1.748-.06.866-.828 1.52-1.706 1.52H2.476c-.911 0-1.65-.731-1.65-1.634zm17.26-62.244c.153-.178 2.431-2.947 6.352-2.947 1.956 0 3.835.675 5.323 1.877 1.37 1.108 3.115 1.718 4.913 1.718 4.256 0 7.665-3.387 7.761-7.71.02-.889.753-1.598 1.65-1.599.898 0 1.632.71 1.652 1.598.047 2.086 1.182 3.895 2.962 4.721 1.75.813 3.215 2.042 4.29 3.547.283-1.486.426-2.997.426-4.526v-2.975c0-5.27-4.333-9.558-9.659-9.558-.988 0-1.924.374-2.635 1.053-1.3 1.242-3.337 1.242-4.637 0-.711-.68-1.647-1.053-2.635-1.053-8.695 0-15.846 6.91-15.763 15.854zm23.854 35.02c-3.91 1.826-8.427 2.036-12.88 0v1.9c0 3.513 2.89 6.371 6.44 6.371 3.55 0 6.44-2.858 6.44-6.372v-1.9zm2.89-6.565c2.048-2.808 3.672-5.881 4.823-9.137.202-.571.969-1.436 2.268-.93.613-1.291 4.062-7.602 4.562-8.648.381-.797-.08-1.834-.945-2.19-.49-.201-1.03-.166-1.506.074-1.024.518-2.292-.093-2.423-1.214-.297-2.544-1.964-4.703-4.312-5.793-1.188-.551-2.2-1.36-2.989-2.348-.497.884-1.142 1.68-1.85 2.435-3.134 3.343-9.685 4.83-14.786.757-1.99-1.589-4.95-1.493-6.776.34-.993.997-1.577 2.343-1.577 3.718v.644c.005 1.2-1.284 2-2.392 1.46-.46-.224-.984-.234-1.456-.048-.75.294-1.388 1.253-.946 2.19.496 1.048 4.021 7.454 4.543 8.624 1.454-.501 2.137.527 2.288.953 1.151 3.248 2.772 6.315 4.816 9.117 2.199 3.012 5.599 4.74 9.328 4.74 3.73 0 7.131-1.73 9.33-4.744zM71 9.803v-8.17C71 .732 70.26 0 69.349 0h-8.256c-.912 0-1.651.731-1.651 1.634 0 .902.74 1.634 1.651 1.634h6.605v6.535c0 .903.739 1.634 1.65 1.634.913 0 1.652-.731 1.652-1.634zm0 44.604v-8.169c0-.902-.74-1.634-1.651-1.634-.912 0-1.651.732-1.651 1.634v6.536h-6.605c-.912 0-1.651.731-1.651 1.633 0 .903.74 1.634 1.651 1.634h8.256c.912 0 1.651-.731 1.651-1.634zM3.302 9.803V3.268h6.605c.912 0 1.651-.732 1.651-1.634C11.558.73 10.818 0 9.907 0H1.651C.74 0 0 .731 0 1.634v8.17c0 .902.74 1.633 1.651 1.633.912 0 1.651-.731 1.651-1.634zm8.256 44.604c0-.902-.74-1.633-1.651-1.633H3.302v-6.536c0-.902-.739-1.634-1.65-1.634-.913 0-1.652.732-1.652 1.634v8.17c0 .902.74 1.633 1.651 1.633h8.256c.912 0 1.651-.731 1.651-1.634z" transform="translate(-645.000000, -384.000000) translate(645.000000, 384.000000)"/>
            </g>
        </g>
    </g>
</svg>
