<svg width="52" height="47" viewBox="0 0 52 47" xmlns="http://www.w3.org/2000/svg">
    <g fill="#656565" fill-rule="evenodd">
        <path d="m51.364 8.9-21.03-5.937V.887H28.6v1.587l-1.733-.489V0h-1.734v1.985l-1.733.49V.886h-1.733v2.076L.636 8.9A.884.884 0 0 0 0 9.755v3.547c0 .49.388.887.867.887H2.6v2.66c0 .49.388.887.867.887h.866v20.396H2.6a.877.877 0 0 0-.867.887v2.66H.867a.877.877 0 0 0-.867.887v3.547c0 .49.388.887.867.887h50.266a.877.877 0 0 0 .867-.887v-3.547a.877.877 0 0 0-.867-.887h-.866v-2.66a.877.877 0 0 0-.867-.887h-1.733V17.736h.866a.877.877 0 0 0 .867-.887v-2.66h1.733a.877.877 0 0 0 .867-.887V9.755a.884.884 0 0 0-.636-.855zm-1.097 34.553v1.773H1.733v-1.773h48.534zm-1.734-3.547v1.773H3.467v-1.773h45.066zm-39-18.623v13.302H6.067V21.283h3.466zm-3.466-1.774v-1.773h3.466v1.773H6.067zm3.466 16.85v1.773H6.067v-1.774h3.466zm1.734 1.773V17.736h5.2v20.396h-5.2zm10.4-16.849v13.302H18.2V21.283h3.467zM18.2 19.509v-1.773h3.467v1.773H18.2zm3.467 16.85v1.773H18.2v-1.774h3.467zm1.733 1.773V17.736h5.2v20.396h-5.2zm10.4-16.849v13.302h-3.467V21.283H33.8zm-3.467-1.774v-1.773H33.8v1.773h-3.467zM33.8 36.36v1.773h-3.467v-1.774H33.8zm1.733 1.773V17.736h5.2v20.396h-5.2zm10.4-16.849v13.302h-3.466V21.283h3.466zm-3.466-1.774v-1.773h3.466v1.773h-3.466zm3.466 16.85v1.773h-3.466v-1.774h3.466zm1.734-20.397H4.333V14.19h43.334v1.773zm2.6-3.547H1.733v-1.984L26 3.58l24.267 6.85v1.984z" fill-rule="nonzero"/>
        <path d="M24 8.5a2.5 2.5 0 1 0 5 0 2.5 2.5 0 0 0-5 0zm3.333 0a.833.833 0 1 1-1.666 0 .833.833 0 0 1 1.666 0z" fill-rule="nonzero"/>
        <path d="M20 7h2v2h-2zM31 7h2v2h-2z"/>
    </g>
</svg>
