<svg xmlns="http://www.w3.org/2000/svg" width="57" height="38" viewBox="0 0 57 38">
    <g fill="none" fill-rule="evenodd">
        <g>
            <g>
                <g>
                    <g>
                        <g>
                            <path stroke="#2F3441" d="M11 29L19 29" transform="translate(-604.000000, -547.000000) translate(374.000000, 236.000000) translate(195.000000, 213.000000) translate(0.000000, 98.000000) translate(35.000000, 0.000000)"/>
                            <path stroke="#2F3441" d="M61 5v24.5c0 .966-.392 1.841-1.025 2.475C59.34 32.608 58.466 33 57.5 33h0-30c-.966 0-1.841-.392-2.475-1.025C24.392 31.34 24 30.466 24 29.5h0V5h37z" transform="translate(-604.000000, -547.000000) translate(374.000000, 236.000000) translate(195.000000, 213.000000) translate(0.000000, 98.000000) translate(35.000000, 0.000000) translate(42.500000, 19.000000) rotate(-90.000000) translate(-42.500000, -19.000000)"/>
                            <path stroke="#2F3441" d="M33 5v24.5c0 .966-.392 1.841-1.025 2.475C31.34 32.608 30.466 33 29.5 33h0-30c-.966 0-1.841-.392-2.475-1.025C-3.608 31.34-4 30.466-4 29.5h0V5h37z" transform="translate(-604.000000, -547.000000) translate(374.000000, 236.000000) translate(195.000000, 213.000000) translate(0.000000, 98.000000) translate(35.000000, 0.000000) translate(14.500000, 19.000000) scale(-1, 1) rotate(-90.000000) translate(-14.500000, -19.000000)"/>
                            <path fill="#DCE0EB" d="M6 24L24 24 24 4 6 4z" transform="translate(-604.000000, -547.000000) translate(374.000000, 236.000000) translate(195.000000, 213.000000) translate(0.000000, 98.000000) translate(35.000000, 0.000000)"/>
                            <path stroke="#2F3441" d="M24.5 4.5v20h-19v-20h19z" transform="translate(-604.000000, -547.000000) translate(374.000000, 236.000000) translate(195.000000, 213.000000) translate(0.000000, 98.000000) translate(35.000000, 0.000000)"/>
                            <path fill="#CEF" d="M15 24h9v-4.872C23.576 18.794 19.179 17 15 17s-8.576 1.794-9 2.128V24h9z" transform="translate(-604.000000, -547.000000) translate(374.000000, 236.000000) translate(195.000000, 213.000000) translate(0.000000, 98.000000) translate(35.000000, 0.000000)"/>
                            <path stroke="#2F3441" d="M15 17.5c4.133 0 8.484 1.656 9.5 2.206h0V24.5h-19v-4.794c1.016-.55 5.367-2.206 9.5-2.206z" transform="translate(-604.000000, -547.000000) translate(374.000000, 236.000000) translate(195.000000, 213.000000) translate(0.000000, 98.000000) translate(35.000000, 0.000000)"/>
                            <path fill="#FFF" d="M15 6c-2.2 0-4 2.216-4 4.926v3.15C11 16.783 12.8 19 15 19s4-2.216 4-4.925v-3.15C19 8.216 17.2 6 15 6" transform="translate(-604.000000, -547.000000) translate(374.000000, 236.000000) translate(195.000000, 213.000000) translate(0.000000, 98.000000) translate(35.000000, 0.000000)"/>
                            <path stroke="#2F3441" d="M14.99 6.5c1.392.057 2.478.568 3.26 1.372.772.796 1.25 1.872 1.25 3.054h0v3.15c0 1.215-.506 2.32-1.32 3.121-.816.804-1.942 1.303-3.18 1.303-1.238 0-2.364-.499-3.18-1.303-.814-.801-1.32-1.906-1.32-3.122h0v-3.15c0-1.216.506-2.32 1.32-3.122.813-.802 1.936-1.3 3.17-1.303zM7 32L23 32M33 34L49 34M33 8L49 8M33 13L42.5 13M51 8L53 8M46.5 13L53 13" transform="translate(-604.000000, -547.000000) translate(374.000000, 236.000000) translate(195.000000, 213.000000) translate(0.000000, 98.000000) translate(35.000000, 0.000000)"/>
                        </g>
                    </g>
                </g>
            </g>
        </g>
    </g>
</svg>
