<svg xmlns="http://www.w3.org/2000/svg" xmlns:xlink="http://www.w3.org/1999/xlink" width="62" height="62" viewBox="0 0 62 62">
<style type="text/css">
	.st0{fill:#EAEDF5;}
	.st1{filter:url(#Adobe_OpacityMaskFilter);}
	.st2{fill-rule:evenodd;clip-rule:evenodd;fill:#FFFFFF;}
	.st3{mask:url(#x7ims1z2gb_1_);fill-rule:evenodd;clip-rule:evenodd;fill:#CCEEFF;}
	.st4{filter:url(#Adobe_OpacityMaskFilter_1_);}
	.st5{mask:url(#x7ims1z2gb_2_);fill:none;stroke:#2F3441;}
	.st6{filter:url(#Adobe_OpacityMaskFilter_2_);}
	.st7{mask:url(#x7ims1z2gb_3_);fill-rule:evenodd;clip-rule:evenodd;fill:#FFFFFF;}
	.st8{filter:url(#Adobe_OpacityMaskFilter_3_);}
	.st9{mask:url(#x7ims1z2gb_4_);fill:none;stroke:#2F3441;}
	.st10{fill:none;stroke:#2F3441;}
</style>
<g>
	<g>
		<g>
			<g transform="translate(-505.000000, -256.000000) translate(365.000000, 182.000000) translate(140.000000, 74.000000)">
				<g>
					<circle id="_x37_9bj8q0uza_1_" class="st0" cx="31" cy="31" r="30.4"/>
				</g>
				<defs>
					<filter id="Adobe_OpacityMaskFilter" filterUnits="userSpaceOnUse" x="3.7" y="37.7" width="51.9" height="28">
						<feColorMatrix  type="matrix" values="1 0 0 0 0  0 1 0 0 0  0 0 1 0 0  0 0 0 1 0"/>
					</filter>
				</defs>
				<mask maskUnits="userSpaceOnUse" x="3.7" y="37.7" width="51.9" height="28" id="x7ims1z2gb_1_">
					<g class="st1">
						<circle id="_x37_9bj8q0uza_2_" class="st2" cx="31" cy="31" r="30.4"/>
					</g>
				</mask>
				<path class="st3" d="M29.6,65.7l26-4.8V44.8c-1.2-1.1-13.9-7.1-26-7.1c-12.1,0-24.7,6-26,7.1V61L29.6,65.7z"/>
				<defs>
					<filter id="Adobe_OpacityMaskFilter_1_" filterUnits="userSpaceOnUse" x="3.7" y="37.7" width="53.7" height="28">
						<feColorMatrix  type="matrix" values="1 0 0 0 0  0 1 0 0 0  0 0 1 0 0  0 0 0 1 0"/>
					</filter>
				</defs>
				<mask maskUnits="userSpaceOnUse" x="3.7" y="37.7" width="53.7" height="28" id="x7ims1z2gb_2_">
					<g class="st4">
						<circle id="_x37_9bj8q0uza_3_" class="st2" cx="31" cy="31" r="30.4"/>
					</g>
				</mask>
				<path class="st5" d="M30.5,38.2c11.9,0,24.4,5.5,26.4,6.8l0,0v15.6l-26.4,4.6L4.2,60.5V45C6.1,43.6,18.6,38.2,30.5,38.2z"/>
				<defs>
					<filter id="Adobe_OpacityMaskFilter_2_" filterUnits="userSpaceOnUse" x="18.9" y="9.2" width="24.7" height="35.6">
						<feColorMatrix  type="matrix" values="1 0 0 0 0  0 1 0 0 0  0 0 1 0 0  0 0 0 1 0"/>
					</filter>
				</defs>
				<mask maskUnits="userSpaceOnUse" x="18.9" y="9.2" width="24.7" height="35.6" id="x7ims1z2gb_3_">
					<g class="st6">
						<circle id="_x37_9bj8q0uza_4_" class="st2" cx="31" cy="31" r="30.4"/>
					</g>
				</mask>
				<path class="st7" d="M18.9,22.7v8.6c0,7.4,4.9,13.5,11.9,13.5s12.8-6.1,12.8-13.5v-8.6c0-7.4-5.7-13.5-12.8-13.5
					S18.9,15.3,18.9,22.7L18.9,22.7z"/>
				<defs>
					<filter id="Adobe_OpacityMaskFilter_3_" filterUnits="userSpaceOnUse" x="18" y="9" width="26.9" height="35.8">
						<feColorMatrix  type="matrix" values="1 0 0 0 0  0 1 0 0 0  0 0 1 0 0  0 0 0 1 0"/>
					</filter>
				</defs>
				<mask maskUnits="userSpaceOnUse" x="18" y="9" width="26.9" height="35.8" id="x7ims1z2gb_4_">
					<g class="st8">
						<circle id="_x37_9bj8q0uza_5_" class="st2" cx="31" cy="31" r="30.4"/>
					</g>
				</mask>
				<path class="st9" d="M31.4,9.5c3.8,0.1,7,1.6,9.2,3.9c2.3,2.4,3.7,5.6,3.7,9.1l0,0v8.7c0,3.6-1.5,6.9-3.8,9.2
					c-2.3,2.4-5.6,3.8-9.1,3.8c-3.6,0-6.8-1.5-9.1-3.8c-2.3-2.4-3.8-5.6-3.8-9.2l0,0v-8.7c0-3.6,1.5-6.9,3.8-9.2
					C24.6,11,27.9,9.5,31.4,9.5L31.4,9.5z"/>
				<g>
					<circle id="wgk8rk70dc" class="st10" cx="31" cy="31" r="30.4"/>
				</g>
			</g>
		</g>
	</g>
</g>
</svg>
