<svg xmlns="http://www.w3.org/2000/svg" width="52" height="45" viewBox="0 0 52 45">
    <g fill="none" fill-rule="evenodd">
        <g>
            <g>
                <path fill="#EAEDF5" d="M45 22.5C45 34.927 34.926 45 22.499 45 10.073 45 0 34.927 0 22.501 0 10.074 10.074 0 22.501 0 34.927 0 45 10.074 45 22.5" transform="translate(-434.000000, -683.000000) translate(434.000000, 683.000000)"/>
                <g>
                    <path fill="#FFF" d="M9.353 33.372h24.823c2.762 0 5-2.238 5-5V12.255c0-2.762-2.238-5-5-5H9.353c-2.761 0-5 2.238-5 5v16.117c0 2.762 2.239 5 5 5z" transform="translate(-434.000000, -683.000000) translate(434.000000, 683.000000) translate(7.647059, 2.000000)"/>
                    <path stroke="#2F3441" d="M36.627 7.755c.967 0 1.842.392 2.475 1.025.634.633 1.025 1.508 1.025 2.475h0v19.06c0 .679-.264 1.296-.696 1.754-.431.457-1.03.756-1.697.798h0l-30.832.006c-.967 0-1.842-.392-2.475-1.026-.633-.633-1.025-1.508-1.025-2.474h0V11.255c0-.967.392-1.842 1.025-2.475.633-.633 1.508-1.025 2.475-1.025h0z" transform="translate(-434.000000, -683.000000) translate(434.000000, 683.000000) translate(7.647059, 2.000000)"/>
                    <path fill="#DCE0EB" d="M8.706 28.294L21.765 28.294 21.765 13.784 8.706 13.784z" transform="translate(-434.000000, -683.000000) translate(434.000000, 683.000000) translate(7.647059, 2.000000)"/>
                    <path stroke="#2F3441" d="M21.99 14.284V28.52H8.48V14.284h13.51z" transform="translate(-434.000000, -683.000000) translate(434.000000, 683.000000) translate(7.647059, 2.000000)"/>
                    <path fill="#CEF" d="M15.235 28.294h6.53V24.76c-.308-.243-3.498-1.544-6.53-1.544s-6.222 1.301-6.53 1.544v3.534h6.53z" transform="translate(-434.000000, -683.000000) translate(434.000000, 683.000000) translate(7.647059, 2.000000)"/>
                    <path stroke="#2F3441" d="M15.235 23.716c2.893 0 5.94 1.126 6.755 1.543h0v3.26H8.48v-3.26c.816-.417 3.863-1.543 6.755-1.543z" transform="translate(-434.000000, -683.000000) translate(434.000000, 683.000000) translate(7.647059, 2.000000)"/>
                    <path fill="#FFF" d="M15.235 15.235c-1.596 0-2.902 1.608-2.902 3.574v2.285c0 1.965 1.306 3.573 2.902 3.573s2.902-1.608 2.902-3.573v-2.285c0-1.966-1.306-3.574-2.902-3.574" transform="translate(-434.000000, -683.000000) translate(434.000000, 683.000000) translate(7.647059, 2.000000)"/>
                    <path stroke="#2F3441" d="M15.224 15.735c.992.05 1.742.405 2.281.965.53.551.858 1.294.858 2.109h0v2.285c0 .844-.352 1.61-.917 2.167-.567.559-1.35.906-2.21.906-.862 0-1.644-.347-2.212-.906-.564-.556-.916-1.323-.916-2.167h0v-2.285c0-.845.352-1.612.916-2.168.565-.556 1.343-.903 2.2-.906zM25.392 17.049L34.824 17.049M25.392 20.676L34.824 20.676M16.686 10.52L28.294 10.52M15.235 10.52L13.784 10.52M29.745 10.52L31.196 10.52" transform="translate(-434.000000, -683.000000) translate(434.000000, 683.000000) translate(7.647059, 2.000000)"/>
                </g>
            </g>
        </g>
    </g>
</svg>
