<?xml version="1.0" encoding="UTF-8"?>
<svg width="522px" height="331px" viewBox="0 0 522 331" version="1.1" xmlns="http://www.w3.org/2000/svg" xmlns:xlink="http://www.w3.org/1999/xlink">
    <title>instert</title>
    <defs>
        <rect id="path-1" x="0" y="0" width="219" height="138" rx="5"></rect>
        <pattern id="pattern-3" width="136" height="105" x="-136" y="-105" patternUnits="userSpaceOnUse">
            <use xlink:href="#image-4" transform="scale(0.1,0.1)"></use>
        </pattern>
        <polygon id="path-5" points="0.479 0.408 219.376 0.408 219.376 26.641 0.479 26.641"></polygon>
        <path d="M1.308,4.775 C-0.585,8.8235 1.163,13.642 5.213,15.533 C9.261,17.426 14.078,15.679 15.971,11.63 C17.864,7.5815 16.116,2.765 12.068,0.8705 C8.019,-1.021 3.203,0.7265 1.308,4.775 Z" id="path-7"></path>
        <path d="M2.837,3.932 C-0.028,7.428 0.487,12.585 3.985,15.449 C7.481,18.312 12.64,17.799 15.503,14.303 C18.367,10.803 17.854,5.648 14.356,2.784 C10.858,-0.081 5.702,0.432 2.837,3.932 Z" id="path-9"></path>
        <path d="M0.74,40.277 L15.548,2.003 C16.255,0.179 18.838,0.179 19.543,2.003 L34.351,40.277 L0.74,40.277 Z" id="path-11"></path>
        <path d="M0.776,40.395 L15.586,2.121 C16.291,0.297 18.872,0.297 19.579,2.121 L34.388,40.395 L0.776,40.395 Z" id="path-13"></path>
    </defs>
    <g id="Page-1" stroke="none" stroke-width="1" fill="none" fill-rule="evenodd">
        <g id="5" transform="translate(-803.000000, -151.000000)">
            <g id="instert" transform="translate(803.000000, 151.000000)">
                <path d="M519.224,180.308 C512.956,151.329 492.768,116.247 434.505,101.108 C324.204,72.447 285.905,-11.367 182.727,15.3255 C182.727,15.3255 127.356,25.3875 101.151,117.008 C74.946,208.629 -27.7365,210.188 7.6185,289.964 C13.398,303.003 28.956,317.228 51.2955,330.663 L469.719,329.256 C498.636,294.489 507.636,264.416 516.338,236.213 C521.925,218.103 523.23,198.833 519.224,180.308 Z" id="Path" fill-opacity="0.14" fill="#04AFFF"></path>
                <path d="M401.907,170.691 L401.907,153.518 C401.907,144.897 395.903,137.694 387.851,135.822 L387.851,114.509 L382.073,114.509 L382.073,135.417 C372.806,136.253 365.54,144.032 365.54,153.518 L365.54,171.195 L349.923,171.195 L349.923,190.895 L348.872,190.895 L348.872,227.505 L320.486,227.303 L320.486,183.545 L287.963,183.545 L287.963,215.612 L265.142,215.612 L265.142,246.764 L237.561,246.764 L237.561,329.222 L329.19,329.222 L329.19,329.21 L348.872,329.21 L348.872,329.222 L463.769,329.222 L463.769,225.239 L417.566,225.239 L417.606,170.691 L401.907,170.691 Z" id="Path" fill="#C2C1D7"></path>
                <polygon id="Path" fill="#C2C1D7" points="93.666 216.011 93.666 175.02 109.032 175.02 109.032 153.096 114.81 153.096 114.81 175.02 128.967 175.02 128.967 216.011 144.851 216.011 144.851 240.569 170.165 240.569 170.165 156.912 223.014 156.912 223.014 329.222 74.118 329.222 74.118 216.011"></polygon>
                <path d="M141.522,328.992006 C132.399,329 124.997,321.611 124.989,312.488 L398.901004,312.273 C398.907,321.396 391.518,328.799 382.395,328.803 L141.522,328.992006 Z" id="Path" fill="#384E90"></path>
                <path d="M141.518,323.304 C134.396,323.31 128.342,318.801 126.017,312.486 L124.989,312.488 C124.997,321.611 132.399,329 141.522,328.992006 L382.395,328.803 C391.518,328.799 398.907,321.396 398.901004,312.273 L397.874,312.273 C395.559,318.593 389.511,323.112 382.391,323.117 L141.518,323.304 Z" id="Path" fill="#485A99"></path>
                <path d="M277.51,317.898 L246.39,317.922003 C243.336,317.925 240.856,315.45 240.855,312.396 L283.035,312.365 C283.036,315.419 280.564,317.895 277.51,317.898 Z" id="Path" fill="#333E81"></path>
                <path d="M383.968998,311.386 L139.086,311.577995 L138.968998,164.077995 C138.965,155.616 145.832,148.751 154.311,148.744 L368.488,148.577995 C376.968,148.571 383.846,155.425 383.854,163.887 L383.968998,311.386 Z" id="Path" fill="#485A99"></path>
                <g id="Group" opacity="0.8" transform="translate(139.000000, 161.000000)">
                    <rect id="Rectangle" fill-opacity="0.04" fill="#485A99" fill-rule="nonzero" x="13" y="0" width="219" height="138" rx="5"></rect>
                    <g id="Clipped" transform="translate(13.000000, 0.000000)">
                        <mask id="mask-2" fill="white">
                            <use xlink:href="#path-1"></use>
                        </mask>
                        <g id="Rectangle"></g>
                        <rect id="Rectangle" fill="url(#pattern-3)" fill-rule="nonzero" mask="url(#mask-2)" x="0" y="0" width="219" height="138"></rect>
                    </g>
                    <polygon id="Path" fill="#DEBD3C" points="0 93.641 244.836 93.641 244.836 67.408 0 67.408"></polygon>
                    <g id="Clipped" transform="translate(9.000000, 67.000000)">
                        <mask id="mask-6" fill="white">
                            <use xlink:href="#path-5"></use>
                        </mask>
                        <g id="Path"></g>
                        <g id="Group" mask="url(#mask-6)" fill="#FFFFFE">
                            <g transform="translate(0.000000, -5.000000)" id="Path">
                                <polygon points="21.546 40.845 0.479 40.845 18.612 0.584 39.677 0.584"></polygon>
                                <polygon points="66.469 40.845 45.403 40.845 63.536 0.584 84.602 0.584"></polygon>
                                <polygon points="111.394 40.845 90.328 40.845 108.459 0.584 129.527 0.584"></polygon>
                                <polygon points="156.32 40.845 135.253 40.845 153.386 0.584 174.451 0.584"></polygon>
                                <polygon points="201.243 40.845 180.176 40.845 198.31 0.584 219.376 0.584"></polygon>
                            </g>
                        </g>
                    </g>
                </g>
                <path d="M344.967,299.502 L346.106,299.501 L344.967,299.502 Z M371.978,273.59 L371.939,224.561 L371.94,224.559 L371.978,273.588 L371.978,273.59 Z" id="Shape" fill="#485A99"></path>
                <path d="M119.231,173.601 L114.425,173.786 L111.612,172.893 C110.321,172.484 108.911,172.974 108.155,174.099 L107.801,174.624 L121.848,182.385 L124.566,176.558 L119.231,173.601 Z" id="Path" fill="#1D182F"></path>
                <path d="M121.852,182.507 L107.694,174.686 L108.189,173.79 C108.286,173.615 108.51,173.55 108.685,173.646 L122.526,181.292 L121.852,182.507 Z" id="Path" fill="#1D182F"></path>
                <polygon id="Path" fill="#D47069" points="124.566 176.558 128.277 170.135 124.566 163.505 119.23 173.601"></polygon>
                <path d="M153.645,139.611 C153.645,139.611 133.623,133.866 131.696,139.272 C129.768,144.678 118.088,168.594 118.088,168.594 L126.806,173.142 L139.881,150.431 L157.475,148.901 L153.645,139.611 Z" id="Path" fill="#1D182F"></path>
                <path d="M137.369,180.89 L133.449,183.387 L130.557,183.971 C129.227,184.239 128.234,185.352 128.117,186.702 L128.061,187.334 L144.111,187.308 L143.661,180.896 L137.369,180.89 Z" id="Path" fill="#1D182F"></path>
                <path d="M144.174,187.415 L127.998,187.439 L127.996,186.416 C127.996,186.213 128.16,186.05 128.362,186.05 L144.172,186.024 L144.174,187.415 Z" id="Path" fill="#1D182F"></path>
                <polygon id="Path" fill="#D47069" points="143.661 180.896 144.174 170.135 137.781 169.415 137.369 180.89"></polygon>
                <path d="M156.348,138.692 L137.478,139.553 C137.478,139.553 134.764,139.701 134.946,146.054 C135.129,152.406 135.111,177.971 135.111,177.971 L144.174,178.284 L145.908,151.506 L164.797,151.274 C168.78,151.224 172.483,148.941 174.058,145.284 C174.661,143.886 174.951,142.317 174.579,140.669 L156.348,138.692 Z" id="Path" fill="#322B53"></path>
                <path d="M138.441015,134.886 C138.446,136.677 137.231,136.949 135.44,136.952044 C133.65,136.956 131.96,136.691 131.956987,134.9 C131.952,133.109 133.403,131.654 135.192,131.650987 C136.982,131.646 138.438,133.095 138.441015,134.886 Z" id="Path" fill="#CC9B8D"></path>
                <path d="M140.72,136.716 L136.97,136.723008 C135.992,136.726 135.189,135.927 135.187992,134.947 C135.185,133.968 135.984,133.165 136.965,133.164 L140.712,133.155999 C141.69,133.155 142.493,133.954 142.494004,134.932 C142.496,135.912 141.698,136.714 140.72,136.716 Z" id="Path" fill="#CC9B8D"></path>
                <path d="M140.574,137.097 L139.324,130.964 L154.729,129.285 L157.812,111.285 C158.122,109.649 160.491,107.619 162.127,107.93 L161.656,107.796 C163.291,108.107 164.794,110.007 164.484,111.644 L161.485,133.178 C161.265,134.339 160.386,135.264 159.235,135.545 L140.574,137.097 Z" id="Path" fill="#B1ABC9"></path>
                <path d="M171.35,108.327 C171.668,108.353 171.98,108.425 172.278,108.54 L172.431,108.6 C175.077,109.634 176.867,112.472 176.987,115.13 L174.579,140.669 C158.615,140.531 156.348,138.692 156.348,138.692 L157.617,112.566 C157.811,110.103 158.942,107.784 161.748,107.552 L171.35,108.327 Z" id="Path" fill="#C3BED4"></path>
                <path d="M153.771,136.895 C153.894,138.681 152.701,139.032 150.913,139.154 C149.127,139.277 147.423,139.125 147.301,137.339 C147.178,135.552 148.528,134.004 150.313,133.881 C152.1,133.76 153.649,135.108 153.771,136.895 Z" id="Path" fill="#D47069"></path>
                <path d="M156.165,138.569 L152.426,138.827 C151.451,138.893 150.596,138.149 150.53,137.172 C150.462,136.196 151.206,135.341 152.183,135.275 L155.921,135.018 C156.899,134.951 157.752,135.695 157.82,136.671 C157.886,137.648 157.142,138.503 156.165,138.569 Z" id="Path" fill="#D47069"></path>
                <path d="M156.045,138.959 L154.392,132.921 L171.18,130.223 L170.224,114.611 C170.427,112.958 172.239,111.099 173.892,111.3 C175.545,111.501 177.171,113.298 176.97,114.951 L178.179,133.656 C178.036,134.831 177.22,135.813 176.094,136.169 L156.045,138.959 Z" id="Path" fill="#C3BED4"></path>
                <path d="M126.996,118.216 L145.316,119.943 C145.917,120 146.399,120.471 146.469,121.071 L148.392,137.578 C148.485,138.388 147.809,139.08 146.997,139.003 L128.375,137.247 C127.764,137.19 127.28,136.707 127.22,136.096 L125.6,119.617 C125.522,118.815 126.195,118.14 126.996,118.216 Z" id="Path" fill="#121318"></path>
                <path d="M125.941,118.116 L144.261,119.844 C144.862,119.901 145.344,120.371 145.413,120.972 L147.336,137.48 C147.43,138.29 146.754,138.981 145.942,138.905 L127.318,137.148 C126.708,137.09 126.223,136.608 126.163,135.996 L124.545,119.519 C124.467,118.716 125.139,118.041 125.941,118.116 Z" id="Path" fill="#1E232C"></path>
                <path d="M147.883,137.693 L160.399,138.873 C160.782,138.909 161.061,139.248 161.026,139.629 C160.989,140.012 160.651,140.291 160.27,140.255 L146.997,139.052 L147.883,137.693 Z" id="Path" fill="#121318"></path>
                <path d="M136.441,128.132 C136.338,129.233 135.358,130.043 134.257,129.939 C133.155,129.834 132.345,128.858 132.45,127.755 C132.552,126.653 133.531,125.843 134.634,125.948 C135.735,126.051 136.545,127.029 136.441,128.132 Z" id="Path" fill="#FFFFFE"></path>
                <polygon id="Path" fill="#B1ABC9" points="169.642 118.211 170.055 129.948 154.392 132.921 168.195 128.61"></polygon>
                <path d="M161.335,106.77 L162.381,109.579 C162.759,110.592 163.696,111.291 164.775,111.364 C166.824,111.502 168.297,109.429 167.493,107.539 L165.657,103.224 L161.335,106.77 Z" id="Path" fill="#D47069"></path>
                <path d="M162.267,109.272 C162.267,109.272 167.425,108.297 166.666,103.787 C165.909,99.276 161.058,102.795 161.058,102.795 L161.532,107.298 L162.267,109.272 Z" id="Path" fill="#C65C57"></path>
                <path d="M154.308,95.775 C152.415,99.8235 154.163,104.642 158.213,106.533 C162.261,108.428 167.078,106.679 168.971,102.63 C170.864,98.5815 169.116,93.765 165.068,91.8705 C161.019,89.979 156.203,91.7265 154.308,95.775 Z" id="Path" fill="#D47069"></path>
                <g id="Clipped" transform="translate(153.000000, 91.000000)">
                    <mask id="mask-8" fill="white">
                        <use xlink:href="#path-7"></use>
                    </mask>
                    <g id="Path"></g>
                    <g id="Group" mask="url(#mask-8)" fill="#322B53">
                        <g transform="translate(-2.000000, -4.000000)" id="Path">
                            <path d="M13.642,13.798 C13.642,13.798 12.367,20.28 17.132,20.422 C21.898,20.563 19.303,8.262 19.303,8.262 L11.762,0.6735 L0.221,3.513 L1.367,10.974 C1.367,10.974 3.203,11.9475 13.123,10.3125 L13.642,13.798 Z"></path>
                            <polygon points="8.932 8.7255 12.721 14.269 15.989 10.659"></polygon>
                        </g>
                    </g>
                </g>
                <path d="M163.367,99.294 C162.833,100.437 163.326,101.799 164.471,102.335 C165.615,102.87 166.977,102.375 167.513,101.232 C168.047,100.086 167.553,98.7255 166.409,98.19 C165.264,97.6545 163.904,98.148 163.367,99.294 Z" id="Path" fill="#D47069"></path>
                <path d="M152.734,97.8525 C152.734,97.8525 150.985,91.473 155.121,87.525 C158.532,84.27 164.107,84.48 167.134,88.095 C168.556,89.793 169.699,92.349 169.804,96.192 L152.734,97.8525 Z" id="Path" fill="#DEBD3C"></path>
                <path d="M153.824,97.743 L153.774,93.7605 L153.774,93.7395 C153.774,92.853 154.472,92.1195 155.36,92.0775 L155.439,92.076 C156.29,92.076 157.01,92.7195 157.095,93.5745 L157.493,97.548 L157.911,97.506 L157.514,93.5325 C157.406,92.4615 156.504,91.656 155.439,91.656 L155.34,91.659 C154.229,91.71 153.354,92.628 153.354,93.7395 L153.354,93.7665 L153.404,97.7475 L153.824,97.743 Z" id="Path" fill="#DA9939"></path>
                <path d="M169.725,95.3551 L151.153,97.1371 C150.691,97.1821 150.352,97.5916 150.396,98.0536 C150.441,98.5156 150.852,98.8546 151.314,98.8111 L169.885,97.0291 C170.347,96.9841 170.685,96.5731 170.641,96.1111 C170.596,95.6491 170.187,95.3101 169.725,95.3551 Z" id="Path" fill="#FFFFFE"></path>
                <polygon id="Path" fill="#D47069" points="338.883 311.373 343.045 315.407 338.301 317.96 334.234 313.977"></polygon>
                <path d="M309.581,281.247 L312.362,293.558 C312.92,296.024 313.991,298.392 315.531,300.563 L333.843,317.015 L341.085,311.115 L325.449,294.558 L319.721,272.726 L309.581,281.247 Z" id="Path" fill="#1D182F"></path>
                <path d="M338.161,317.842 L336.661,322.627 L334.948,325.011 C334.159,326.107 334.189,327.591 335.019,328.656 L335.406,329.154 L347.092,318.267 L342.42,313.896 L338.161,317.842 Z" id="Path" fill="#1D182F"></path>
                <polygon id="Path" fill="#1D182F" points="347.21 318.302 335.433 329.273 334.49 328.262 346.266 317.289"></polygon>
                <polygon id="Path" fill="#D47069" points="298.843 318.863 297.282 324.077 291.918 322.638 293.485 317.519"></polygon>
                <path d="M306.031,267.515 L291.012,318.29 L300.489,320.655 L308.944,295.202 L319.332,278.549 C319.858,277.805 320.377,277.026 320.815,276.222 C321.648,274.698 322.021,273.036 322.003,271.37 L321.967,268.067 L306.031,267.515 Z" id="Path" fill="#322B53"></path>
                <path d="M292.229,322.137 L287.489,323.887 L284.532,323.989 C283.175,324.036 282.009,324.973 281.672,326.29 L281.514,326.905 L297.389,329.517 L297.998,323.101 L292.229,322.137 Z" id="Path" fill="#1D182F"></path>
                <polygon id="Path" fill="#1D182F" points="297.434 329.631 281.435 326.999 281.66 325.625 297.66 328.256"></polygon>
                <polygon id="Path" fill="#35478B" points="285.068 215.943 278.997 225.415 281.907 227.503 288.189 217.482"></polygon>
                <path d="M277.183,200.246 C277.183,200.246 279.988,211.988 294.204,216.609 C294.613,216.741 294.925,217.086 294.982,217.514 C295.164,218.873 295.165,221.811 292.023,222.683 C291.724,222.765 291.394,222.705 291.133,222.542 C288.96,221.18 278.266,214.928 267.886,216.732 L277.183,200.246 Z" id="Path" fill="#3C5494"></path>
                <path d="M277.183,200.246 C277.183,200.246 274.578,211.958 267.886,216.732 C267.886,216.732 268.83,206.465 277.183,200.246 Z" id="Path" fill="#35478B"></path>
                <path d="M277.019,224.8 C276.579,226.954 278.352,229.584 280.508,230.025 C282.662,230.466 284.766,229.075 285.207,226.921 C285.648,224.766 283.872,222.135 281.718,221.695 C279.563,221.254 277.46,222.645 277.019,224.8 Z" id="Path" fill="#D47069"></path>
                <polyline id="Path" fill="#D47069" points="288.425 231.126 284.216 226.729 281.468 230.112 288.425 235.212"></polyline>
                <path d="M287.756,227.06 L283.307,233.675 L295.47,244.808 C296.214,245.021 296.988,245.094 297.758,245.03 L313.818,242.948 C316.349,242.828 318.303,240.678 318.183,238.148 C318.063,235.616 318.548,231.954 316.019,232.074 L297.357,235.907 L287.756,227.06 Z" id="Path" fill="#B1ABC9"></path>
                <path d="M323.777,242.237 C324.206,238.728 322.613,235.254 319.637,233.348 C318.299,232.491 316.973,231.912 316.019,232.074 C312.815,232.616 309.522,234.066 308.111,238.391 C305.715,245.744 305.03,267.482 305.03,267.482 L322.247,268.067 L323.777,242.237 Z" id="Path" fill="#C3BED4"></path>
                <polygon id="Path" fill="#B1ABC9" points="317.421 242.784 322.598 261.807 323.645 245.669"></polygon>
                <path d="M338.523,280.323 C340.151,278.843 340.269,275.673 338.789,274.046 C337.31,272.418 334.79,272.3 333.164,273.779 C331.535,275.258 331.416,278.429 332.897,280.055 C334.376,281.682 336.894,281.804 338.523,280.323 Z" id="Path" fill="#D47069"></path>
                <polyline id="Path" fill="#D47069" points="330.711 266.772 333.849 274.518 338.065 273.41 335.458 265.185"></polyline>
                <path d="M330.91,272.748 L339.531,270.854 L333.685,250.857 C333.469,250.116 333.118,249.42 332.655,248.804 L321.919,235.442 C320.469,233.366 318.025,233.736 315.946,235.185 C313.869,236.636 313.36,239.495 314.809,241.574 L325.147,254.003 L330.91,272.748 Z" id="Path" fill="#C3BED4"></path>
                <path d="M311.987,229.458 L312.314,232.473 C312.432,233.559 313.176,234.479 314.217,234.818 C316.19,235.464 318.152,233.801 317.834,231.746 L317.108,227.057 L311.987,229.458 Z" id="Path" fill="#D47069"></path>
                <path d="M312.279,232.143 C312.279,232.143 317.595,231.969 317.976,227.36 C318.355,222.749 312.706,225.492 312.706,225.492 L312.048,230.024 L312.279,232.143 Z" id="Path" fill="#C65C57"></path>
                <path d="M307.837,216.93 C304.972,220.428 305.487,225.585 308.985,228.448 C312.481,231.312 317.64,230.8 320.503,227.302 C323.367,223.803 322.854,218.647 319.356,215.784 C315.858,212.919 310.702,213.432 307.837,216.93 Z" id="Path" fill="#D47069"></path>
                <g id="Clipped" transform="translate(305.000000, 213.000000)">
                    <mask id="mask-10" fill="white">
                        <use xlink:href="#path-9"></use>
                    </mask>
                    <g id="Path"></g>
                    <g id="Group" mask="url(#mask-10)" fill="#322B53">
                        <g transform="translate(0.000000, -2.000000)" id="Path">
                            <path d="M11.716,13.427 C11.716,13.427 8.851,19.465 13.487,20.791 C18.122,22.115 18.646,9.41 18.646,9.41 L13.142,0.094 L1.121,0.002 L0.386,7.603 C0.386,7.603 1.943,9.014 12.074,9.881 L11.716,13.427 Z"></path>
                            <polygon points="8.362 7.282 10.697 13.661 14.8 10.934"></polygon>
                        </g>
                    </g>
                </g>
                <path d="M315.842,222.635 C315.032,223.623 315.177,225.083 316.166,225.891 C317.156,226.701 318.612,226.556 319.422,225.567 C320.232,224.579 320.087,223.121 319.097,222.311 C318.108,221.501 316.652,221.646 315.842,222.635 Z" id="Path" fill="#D47069"></path>
                <path d="M305.729,219.276 C305.729,219.276 305.328,212.6 310.244,209.553 C314.298,207.044 319.773,208.416 322.016,212.624 C323.069,214.601 323.666,217.368 322.97,221.193 L305.729,219.276 Z" id="Path" fill="#DEBD3C"></path>
                <path d="M306.828,219.396 L307.611,215.444 C307.767,214.646 308.469,214.088 309.26,214.088 L309.531,214.11 C310.355,214.242 310.946,214.955 310.946,215.772 L310.937,215.954 L310.502,219.968 L310.923,220.014 L311.358,215.999 L311.37,215.772 C311.37,214.748 310.631,213.858 309.6,213.69 L309.26,213.663 C308.268,213.663 307.391,214.361 307.194,215.361 L306.411,219.314 L306.828,219.396 Z" id="Path" fill="#DA9939"></path>
                <path d="M323.064,220.349 L304.312,218.24 C303.846,218.187 303.424,218.523 303.372,218.99 C303.319,219.456 303.655,219.876 304.122,219.929 L322.873,222.038 C323.34,222.09 323.761,221.756 323.814,221.289 C323.866,220.823 323.53,220.401 323.064,220.349 Z" id="Path" fill="#FFFFFE"></path>
                <polyline id="Path" fill="#384E90" points="436.023 268.31 416.622 287.436 419.412 290.265 438.813 271.139"></polyline>
                <polyline id="Path" fill="#384E90" points="436.023 247.871 416.622 266.997 419.412 269.826 438.813 250.7"></polyline>
                <polyline id="Path" fill="#384E90" points="436.023 206.993 416.622 226.119 419.412 228.948 438.813 209.822"></polyline>
                <polyline id="Path" fill="#384E90" points="436.023 186.554 416.622 205.68 419.412 208.509 438.813 189.383"></polyline>
                <polyline id="Path" fill="#384E90" points="436.023 166.115 416.622 185.241 419.412 188.07 438.813 168.944"></polyline>
                <polyline id="Path" fill="#384E90" points="436.023 145.676 416.622 164.802 419.412 167.631 438.813 148.505"></polyline>
                <polyline id="Path" fill="#384E90" points="436.023 125.237 416.622 144.363 419.412 147.192 438.813 128.066"></polyline>
                <polyline id="Path" fill="#384E90" points="436.023 104.798 416.622 123.924 419.412 126.753 438.813 107.627"></polyline>
                <polyline id="Path" fill="#384E90" points="436.023 84.3585 416.622 103.485 419.412 106.314 438.813 87.1875"></polyline>
                <polyline id="Path" fill="#384E90" points="436.023 63.9196 416.622 83.0461 419.412 85.8751 438.813 66.7486"></polyline>
                <polyline id="Path" fill="#384E90" points="436.023 227.432 416.622 246.558 419.412 249.387 438.813 230.261"></polyline>
                <polygon id="Path" fill="#384E90" points="418.017 270.398 437.418 270.398 437.418 266.424 418.017 266.424"></polygon>
                <polygon id="Path" fill="#384E90" points="418.017 249.959 437.418 249.959 437.418 245.985 418.017 245.985"></polygon>
                <polygon id="Path" fill="#384E90" points="418.017 229.52 437.418 229.52 437.418 225.546 418.017 225.546"></polygon>
                <polygon id="Path" fill="#384E90" points="418.017 209.081 437.418 209.081 437.418 205.107 418.017 205.107"></polygon>
                <polygon id="Path" fill="#384E90" points="418.017 188.642 437.418 188.642 437.418 184.668 418.017 184.668"></polygon>
                <polygon id="Path" fill="#384E90" points="418.017 168.203 437.418 168.203 437.418 164.229 418.017 164.229"></polygon>
                <polygon id="Path" fill="#384E90" points="418.017 147.764 437.418 147.764 437.418 143.79 418.017 143.79"></polygon>
                <polygon id="Path" fill="#384E90" points="418.017 127.325 437.418 127.325 437.418 123.351 418.017 123.351"></polygon>
                <polygon id="Path" fill="#384E90" points="418.017 106.886 437.418 106.886 437.418 102.912 418.017 102.912"></polygon>
                <polygon id="Path" fill="#384E90" points="418.017 86.4466 437.418 86.4466 437.418 82.4746 418.017 82.4746"></polygon>
                <polygon id="Path" fill="#485A99" points="416.03 294.389 420.003 294.389 420.003 68.604 416.03 68.604"></polygon>
                <polygon id="Path" fill="#485A99" points="435.432 294.389 439.406 294.389 439.406 68.604 435.432 68.604"></polygon>
                <polygon id="Path" fill="#322B53" points="408.015 328.992 446.652 328.992 446.652 288.851 408.015 288.851"></polygon>
                <path d="M437.47,68.6041 L417.277,68.6041 C413.713,68.6041 410.826,65.7151 410.826,62.1526 L410.826,36.8236 C410.826,33.2611 413.713,30.3721 417.277,30.3721 L437.47,30.3721 C441.033,30.3721 443.922,33.2611 443.922,36.8236 L443.922,62.1526 C443.922,65.7151 441.033,68.6041 437.47,68.6041 Z" id="Path" fill="#384E90"></path>
                <path d="M426.84,57.4771 L413.843,57.4771 L413.843,39.5911 L426.84,39.5911 C429.539,39.5911 431.727,41.7796 431.727,44.4796 L431.727,52.5886 C431.727,55.2886 429.539,57.4771 426.84,57.4771 Z" id="Path" fill="#32468A"></path>
                <polyline id="Path" fill="#322B53" points="288.481 71.217 304.002 116.303 307.069 115.248 291.549 70.161"></polyline>
                <polyline id="Path" fill="#322B53" points="277.917 64.3695 247.651 105.248 250.258 107.177 280.522 66.2985"></polyline>
                <path d="M288.258,85.3921 L319.532,126.288 C322.973,130.788 322.115,137.225 317.615,140.667 L276.719,171.939 C272.219,175.38 265.782,174.522 262.341,170.024 L231.066,129.126 C227.625,124.626 228.483,118.19 232.983,114.749 L273.881,83.4736 C278.379,80.0326 284.817,80.8921 288.258,85.3921 Z" id="Path" fill="#DEBD3C"></path>
                <path d="M285.903,93.0841 L285.238,93.5926 L310.827,127.053 C311.876,128.426 312.379,130.035 312.381,131.637 C312.379,133.913 311.36,136.157 309.414,137.646 L275.952,163.235 C274.579,164.283 272.972,164.789 271.368,164.789 C269.092,164.787 266.848,163.769 265.359,161.822 L239.772,128.361 C238.722,126.989 238.218,125.379 238.216,123.777 C238.218,121.5 239.238,119.256 241.183,117.768 L274.646,92.1796 C276.018,91.1311 277.627,90.6256 279.229,90.6256 C281.507,90.6256 283.749,91.6456 285.238,93.5926 L285.903,93.0841 L286.566,92.5771 C284.751,90.2041 282.001,88.9531 279.229,88.9545987 C277.277,88.9545987 275.301,89.5741 273.63,90.8521 L240.169,116.441 C237.795,118.256 236.545,121.004 236.546995,123.777 C236.545,125.73 237.166,127.706 238.444,129.375 L264.031,162.836 C265.847,165.21 268.596,166.46 271.368,166.46 C273.322,166.46 275.296,165.839 276.967,164.561 L310.429,138.974 C312.802,137.159 314.052,134.409 314.050005,131.637 C314.052,129.684 313.431,127.709 312.153,126.039 L286.566,92.5771 L285.903,93.0841 Z" id="Path" fill="#322B53"></path>
                <path d="M281.916,109.047 L278.299,134.567 L270.552,133.533 C271.698,124.949 272.65,116.604 273.801,107.966 L281.916,109.047 Z M277.953,142.968 C277.144,149.04 267.928,147.812 268.738,141.74 C269.556,135.614 278.77,136.842 277.953,142.968 Z" id="Shape" fill="#322B53"></path>
                <path d="M298.563,61.515 C298.563,68.6805 292.754,74.49 285.588,74.49 C278.421,74.49 272.613,68.6805 272.613,61.515 C272.613,54.3495 278.421,48.54 285.588,48.54 C292.754,48.54 298.563,54.3495 298.563,61.515 Z" id="Path" fill="#322B53"></path>
                <path d="M294.762,61.5151 C294.762,66.5821 290.655,70.6891 285.588,70.6891 C280.521,70.6891 276.412,66.5821 276.412,61.5151 C276.412,56.4481 280.521,52.3411 285.588,52.3411 C290.655,52.3411 294.762,56.4481 294.762,61.5151 Z" id="Path" fill="#3B366D"></path>
                <polygon id="Path" fill="#384E90" points="334.48 30.372 338.454 30.372 338.454 2.86951 334.48 2.86951"></polygon>
                <polygon id="Path" fill="#384E90" points="309.818 30.372 313.791 30.372 313.791 2.86951 309.818 2.86951"></polygon>
                <polygon id="Path" fill="#384E90" points="359.062 30.372 363.036 30.372 363.036 2.86951 359.062 2.86951"></polygon>
                <polygon id="Path" fill="#384E90" points="386.376 30.372 390.349 30.372 390.349 2.86951 386.376 2.86951"></polygon>
                <polygon id="Path" fill="#384E90" points="411.855 30.372 415.828 30.372 415.828 2.86951 411.855 2.86951"></polygon>
                <polygon id="Path" fill="#384E90" points="438.27 30.372 442.244 30.372 442.244 2.86951 438.27 2.86951"></polygon>
                <polygon id="Path" fill="#384E90" points="464.219 30.372 468.192 30.372 468.192 2.86951 464.219 2.86951"></polygon>
                <polyline id="Path" fill="#384E90" points="311.964 31.7356 337.912 4.23307 335.022 1.50757 309.073 29.0086"></polyline>
                <polyline id="Path" fill="#384E90" points="337.912 31.7356 363.859 4.23307 360.969 1.50757 335.022 29.0086"></polyline>
                <polyline id="Path" fill="#384E90" points="363.859 31.7356 389.808 4.23307 386.917 1.50757 360.969 29.0086"></polyline>
                <polyline id="Path" fill="#384E90" points="389.808 31.7356 415.753 4.23307 412.864 1.50757 386.917 29.0086"></polyline>
                <polyline id="Path" fill="#384E90" points="415.754 31.7356 441.702 4.23307 438.813 1.50757 412.865 29.0086"></polyline>
                <polyline id="Path" fill="#384E90" points="441.702 31.7356 467.65 4.23307 464.76 1.50757 438.813 29.0086"></polyline>
                <path d="M285.588,30.372 L285.588,32.3595 L497.145,32.3595 C497.953,32.3595 498.684,31.8675 498.987,31.116 C499.29,30.366 499.107,29.505 498.525,28.944 L470.038,1.44154 C469.668,1.08304 469.174,0.883545 468.658,0.883545 L307.471,0.883545 C306.868,0.883545 306.292,1.16104 305.917,1.63354 L284.032,29.136 C283.56,29.73 283.467,30.5505 283.798,31.236 C284.128,31.92 284.827,32.3595 285.588,32.3595 L285.588,30.372 L287.142,31.6095 L308.43,4.85704 L467.856,4.85704 L492.226,28.386 L285.588,28.386 L285.588,30.372 L287.142,31.6095 L285.588,30.372 Z" id="Path" fill="#485A99"></path>
                <path d="M283.6,30.372 L283.6,61.515 C283.6,62.613 284.49,63.5025 285.588,63.5025 C286.684,63.5025 287.574,62.613 287.574,61.515 L287.574,30.372 C287.574,29.2755 286.684,28.386 285.588,28.386 C284.49,28.386 283.6,29.2755 283.6,30.372 Z" id="Path" fill="#485A99"></path>
                <path d="M173.74,325.277 L188.548,287.003 C189.255,285.179 191.838,285.179 192.543,287.003 L207.351,325.277 L173.74,325.277 Z" id="Path" fill="#DEBD3C"></path>
                <g id="Clipped" transform="translate(173.000000, 285.000000)">
                    <mask id="mask-12" fill="white">
                        <use xlink:href="#path-11"></use>
                    </mask>
                    <g id="Path"></g>
                    <g id="Group" mask="url(#mask-12)" fill="#F8F6F4">
                        <g transform="translate(2.000000, 10.000000)" id="Path">
                            <polygon points="2.171 8.356 28.465 8.356 28.465 0.233 2.171 0.233"></polygon>
                            <polygon points="0.734 23.708 30.473 23.708 30.473 15.584 0.734 15.584"></polygon>
                        </g>
                    </g>
                </g>
                <polygon id="Path" fill="#D0B13C" points="171.033 328.501 210.228 328.501 210.228 325.276 171.033 325.276"></polygon>
                <path d="M388.776,325.395 L403.586,287.121 C404.291,285.297 406.872,285.297 407.579,287.121 L422.388,325.395 L388.776,325.395 Z" id="Path" fill="#DEBD3C"></path>
                <g id="Clipped" transform="translate(388.000000, 285.000000)">
                    <mask id="mask-14" fill="white">
                        <use xlink:href="#path-13"></use>
                    </mask>
                    <g id="Path"></g>
                    <g id="Group" mask="url(#mask-14)" fill="#F8F6F4">
                        <g transform="translate(2.000000, 10.000000)" id="Path">
                            <polygon points="2.207 8.474 28.5 8.474 28.5 0.352 2.207 0.352"></polygon>
                            <polygon points="0.771 23.825 30.508 23.825 30.508 15.703 0.771 15.703"></polygon>
                        </g>
                    </g>
                </g>
                <polygon id="Path" fill="#D0B13C" points="386.07 328.62 425.264 328.62 425.264 325.395 386.07 325.395"></polygon>
                <path d="M124.061,261.304 C124.061,278.29 110.292,292.059 93.3075,292.059 C76.323,292.059 62.5545,278.29 62.5545,261.304 C62.5545,244.321 76.323,230.553 93.3075,230.553 C110.292,230.553 124.061,244.321 124.061,261.304 Z" id="Path" fill="#485A99"></path>
                <path d="M92.4556,250.344 L92.4556,328.502 C92.4556,328.973 92.8366,329.355 93.3076,329.355 C93.7786,329.355 94.1596,328.973 94.1596,328.502 L94.1596,250.344 C94.1596,249.873 93.7786,249.492 93.3076,249.492 C92.8366,249.492 92.4556,249.873 92.4556,250.344 Z" id="Path" fill="#384E90"></path>
                <path d="M80.712,252.504 L92.6715,265.916 C92.985,266.267 93.5235,266.298 93.8745,265.985 C94.227,265.671 94.257,265.133 93.9435,264.782 L81.9855,251.369 C81.672,251.018 81.132,250.986 80.781,251.3 C80.43,251.613 80.3985,252.152 80.712,252.504 Z" id="Path" fill="#384E90"></path>
                <path d="M103.313,264.008 C102.866,264.455 100.226,267.195 97.6756,269.844 C95.1316,272.49 92.6926,275.03 92.6926,275.03 C92.3671,275.369 92.3776,275.909 92.7166,276.234 C93.0571,276.561 93.5971,276.549 93.9226,276.21 C93.9241,276.209 94.5316,275.576 95.4601,274.611 C98.2381,271.719 103.898,265.833 104.517,265.214 C104.852,264.881 104.852,264.341 104.519,264.008 C104.186,263.675 103.646,263.675 103.313,264.008 Z" id="Path" fill="#384E90"></path>
            </g>
        </g>
    </g>
</svg>