<svg width="49" height="88" xmlns="http://www.w3.org/2000/svg">
    <g fill="#4D4D4D" fill-rule="nonzero">
        <g fill-opacity=".8">
            <path d="M39.617 58.52H34.51a1.283 1.283 0 0 1-1.277-1.29c0-.712.571-1.29 1.277-1.29h3.83v-3.87c0-.712.57-1.29 1.276-1.29.705 0 1.276.578 1.276 1.29v5.16c0 .713-.57 1.29-1.276 1.29zM15.476 58.52h-5.107a1.283 1.283 0 0 1-1.276-1.29v-5.16c0-.712.571-1.29 1.276-1.29.705 0 1.277.578 1.277 1.29v3.87h3.83c.705 0 1.276.578 1.276 1.29 0 .713-.571 1.29-1.276 1.29zM25 44.05a1.283 1.283 0 0 1-1.277-1.29v-2.92h-2.89a1.283 1.283 0 0 1-1.276-1.29c0-.713.571-1.29 1.276-1.29h2.89v-2.92c0-.713.572-1.29 1.277-1.29s1.277.577 1.277 1.29v2.92h2.89c.705 0 1.276.577 1.276 1.29 0 .712-.571 1.29-1.276 1.29h-2.89v2.92c0 .712-.572 1.29-1.277 1.29zM10.37 26.318a1.283 1.283 0 0 1-1.277-1.29v-5.16c0-.712.571-1.29 1.276-1.29h5.107c.705 0 1.276.578 1.276 1.29 0 .713-.571 1.29-1.276 1.29h-3.83v3.87c0 .713-.572 1.29-1.277 1.29zM39.476 26.318c.705 0 1.276-.577 1.276-1.29v-5.16c0-.712-.571-1.29-1.276-1.29h-5.107c-.705 0-1.276.578-1.276 1.29 0 .713.571 1.29 1.276 1.29h3.83v3.87c0 .713.572 1.29 1.277 1.29z"/>
        </g>
        <path d="M25.498 75.066a1.435 1.435 0 0 0-1.015 2.447l.052.054a1.45 1.45 0 0 0 1.978-.048l.006-.006c.255-.259.415-.616.415-1.015 0-.399-.16-.759-.415-1.017l-.003.003a1.433 1.433 0 0 0-1.018-.418zm-3.18-1.748A4.482 4.482 0 0 1 25.498 72c1.241 0 2.37.504 3.184 1.318l-.003.003.003.003A4.49 4.49 0 0 1 30 76.498c0 1.238-.507 2.361-1.318 3.178l-.006.006a4.484 4.484 0 0 1-6.247.102l-.111-.102A4.495 4.495 0 0 1 21 76.498c0-1.244.504-2.367 1.318-3.18zM33.258 77C32.565 77 32 76.326 32 75.498c0-.827.565-1.498 1.258-1.498h6.487c.693 0 1.255.671 1.255 1.498 0 .828-.565 1.502-1.255 1.502h-6.487z"/>
        <path d="M48.997 12.031a1.38 1.38 0 0 1-2.757 0V8.48a5.702 5.702 0 0 0-1.686-4.042l-.063-.068a5.742 5.742 0 0 0-3.988-1.616H8.493a5.73 5.73 0 0 0-4.05 1.684A5.712 5.712 0 0 0 2.757 8.48v71.042c0 1.573.648 3.005 1.686 4.042l.063.069a5.749 5.749 0 0 0 3.99 1.615H40.51a5.722 5.722 0 0 0 4.048-1.684 5.712 5.712 0 0 0 1.686-4.042V58.206a1.38 1.38 0 0 1 2.757 0V79.52a8.454 8.454 0 0 1-2.493 5.99A8.484 8.484 0 0 1 40.51 88H8.494a8.473 8.473 0 0 1-5.904-2.404l-.097-.088A8.442 8.442 0 0 1 0 79.52V8.479a8.45 8.45 0 0 1 2.496-5.99A8.478 8.478 0 0 1 8.494 0h32.012c2.287 0 4.37.92 5.901 2.403l.098.09a8.46 8.46 0 0 1 2.492 5.99v3.548z"/>
        <path d="M.003 12.031a1.38 1.38 0 0 0 2.757 0V8.48c0-1.572.648-3.008 1.686-4.042l.063-.068a5.742 5.742 0 0 1 3.988-1.616h32.01a5.73 5.73 0 0 1 4.05 1.684 5.712 5.712 0 0 1 1.686 4.042v71.042a5.707 5.707 0 0 1-1.686 4.042l-.063.069a5.749 5.749 0 0 1-3.99 1.615H8.49a5.722 5.722 0 0 1-4.048-1.684 5.712 5.712 0 0 1-1.686-4.042V58.206a1.38 1.38 0 0 0-2.757 0V79.52c0 2.334.958 4.457 2.493 5.99A8.484 8.484 0 0 0 8.49 88h32.015c2.286 0 4.372-.92 5.904-2.404l.097-.088A8.442 8.442 0 0 0 49 79.52V8.479a8.45 8.45 0 0 0-2.496-5.99A8.478 8.478 0 0 0 40.506 0H8.494c-2.287 0-4.37.92-5.901 2.403l-.098.09a8.46 8.46 0 0 0-2.492 5.99v3.548z"/>
        <path d="M9.258 77C8.565 77 8 76.326 8 75.498 8 74.671 8.565 74 9.258 74h6.484c.693 0 1.258.671 1.258 1.498 0 .828-.565 1.502-1.258 1.502H9.258zM21.397 10C20.627 10 20 9.326 20 8.498 20 7.671 20.628 7 21.397 7h7.206C29.373 7 30 7.671 30 8.498 30 9.326 29.372 10 28.603 10h-7.206z"/>
    </g>
</svg>
