<svg xmlns="http://www.w3.org/2000/svg" width="45" height="45" viewBox="0 0 45 45">
    <g fill="none" fill-rule="evenodd">
        <g>
            <g>
                <path fill="#EAEDF5" d="M45 22.5C45 34.927 34.926 45 22.499 45 10.073 45 0 34.927 0 22.501 0 10.074 10.074 0 22.501 0 34.927 0 45 10.074 45 22.5" transform="translate(-706.000000, -682.000000) translate(706.000000, 682.000000)"/>
                <g>
                    <g fill="#505050" fill-rule="nonzero">
                        <path d="M14.134 31.37c0 .347-.282.63-.628.63-.346 0-.628-.283-.628-.63 0-.347.282-.63.628-.63.346 0 .628.283.628.63zm-13.82-.797c0-4.2 2.84-6.49 4.083-7.238 1.688-1.014 3.502-1.782 5.398-2.286v-1.014c-.316-.28-.605-.598-.86-.953-.752-1.045-1.366-2.178-1.829-3.374-.423-.058-.81-.329-1.01-.752-.19-.403-1.506-2.846-1.708-3.281-.511-1.102.157-2.192 1.005-2.542.14-.059.286-.102.433-.126-.137-.563-.206-1.143-.206-1.731C5.62 3.264 8.873 0 12.872 0c.703 0 1.368.27 1.874.76.006.005.014.005.02 0C15.27.27 15.935 0 16.64 0c2.717 0 4.929 2.218 4.929 4.945v1.147c0 .988-.136 1.96-.402 2.903.15.024.3.064.444.128 1.042.474 1.45 1.645 1.004 2.543-.213.429-1.518 2.878-1.708 3.281-.2.423-.586.693-1.01.751-.462 1.2-1.077 2.335-1.83 3.382-.256.356-.546.674-.862.955v1.014c1.896.504 3.71 1.272 5.398 2.286 1.244.748 4.083 3.038 4.083 7.238v.797c0 .348-.281.63-.628.63h-9.726c-.36 0-.651-.305-.627-.672.022-.335.314-.588.648-.588h9.077c0-2.66-1.33-5.036-3.473-6.324-1.512-.909-3.132-1.608-4.824-2.081-.339 1.701-1.839 2.988-3.633 2.988s-3.294-1.287-3.633-2.988c-1.692.473-3.312 1.172-4.824 2.081C2.9 25.704 1.57 28.007 1.57 30.74h9.11c.361 0 .651.307.627.674-.023.334-.315.586-.65.586H.943c-.347 0-.628-.282-.628-.63v-.797zm6.564-23.2c.058-.07.924-1.137 2.415-1.137.744 0 1.459.26 2.024.724.522.427 1.185.662 1.869.662 1.618 0 2.915-1.306 2.951-2.973.008-.342.287-.616.628-.616s.62.274.628.616c.018.805.45 1.502 1.126 1.82.666.314 1.223.788 1.631 1.368.108-.573.163-1.156.163-1.745V4.945c0-2.032-1.648-3.685-3.673-3.685-.376 0-.732.144-1.002.406-.495.479-1.27.479-1.764 0-.27-.262-.626-.406-1.002-.406-3.306 0-6.026 2.664-5.994 6.112zm9.07 13.5c-1.486.705-3.203.786-4.897.001v.732c0 1.355 1.099 2.457 2.449 2.457 1.35 0 2.449-1.102 2.449-2.457v-.732zm1.1-2.53c.779-1.083 1.397-2.267 1.834-3.523.077-.22.368-.553.863-.358.233-.498 1.544-2.931 1.735-3.335.144-.307-.03-.707-.36-.844-.186-.077-.392-.064-.572.029-.39.2-.872-.036-.922-.468-.113-.981-.747-1.814-1.64-2.234-.451-.212-.836-.524-1.136-.905-.19.34-.435.648-.704.939-1.192 1.289-3.683 1.862-5.623.292-.757-.613-1.882-.576-2.577.13-.377.385-.6.904-.6 1.434v.248c.003.463-.488.772-.91.563-.174-.086-.373-.09-.553-.018-.285.113-.528.483-.36.844.19.404 1.53 2.874 1.728 3.325.553-.193.813.203.87.367.438 1.253 1.054 2.435 1.832 3.515.836 1.162 2.129 1.828 3.547 1.828 1.418 0 2.712-.667 3.548-1.83zM27 3.78V.63c0-.348-.281-.63-.628-.63h-3.14c-.346 0-.627.282-.627.63 0 .348.28.63.628.63h2.511v2.52c0 .347.281.63.628.63S27 4.126 27 3.78zm0 17.196v-3.15c0-.347-.281-.63-.628-.63s-.628.283-.628.63v2.52h-2.511c-.347 0-.628.282-.628.63 0 .348.28.63.628.63h3.14c.346 0 .627-.282.627-.63zM1.256 3.78V1.26h2.511c.347 0 .628-.282.628-.63 0-.348-.28-.63-.628-.63H.627C.282 0 0 .282 0 .63v3.15c0 .347.281.63.628.63s.628-.283.628-.63zm3.14 17.196c0-.348-.282-.63-.629-.63H1.256v-2.52c0-.347-.281-.63-.628-.63S0 17.48 0 17.827v3.15c0 .348.281.63.628.63h3.14c.346 0 .627-.282.627-.63z" transform="translate(-706.000000, -682.000000) translate(706.000000, 682.000000) translate(14.000000, 6.000000)"/>
                    </g>
                    <path fill="#CEF" d="M6.94 7.278c.058-.07.934-1.172 2.44-1.172.752 0 1.474.268 2.046.746.526.441 1.197.684 1.888.684 1.635 0 2.945-1.348 2.982-3.068.008-.353.29-.636.634-.636.345 0 .627.282.635.636.018.83.454 1.55 1.138 1.878.672.323 1.235.813 1.648 1.412.11-.592.164-1.193.164-1.801V4.773c0-2.097-1.665-3.803-3.712-3.803-.38 0-.739.149-1.012.419-.5.494-1.282.494-1.782 0-.273-.27-.633-.42-1.012-.42-3.341 0-6.09 2.75-6.057 6.309z" transform="translate(-706.000000, -682.000000) translate(706.000000, 682.000000) translate(14.000000, 6.000000)"/>
                    <path fill="#FFF" d="M17.295 18.343c.784-1.083 1.405-2.267 1.844-3.523.078-.22.371-.553.868-.358.234-.498 1.553-2.931 1.745-3.335.145-.307-.03-.707-.362-.844-.187-.077-.394-.064-.576.029-.392.2-.876-.036-.926-.468-.114-.981-.751-1.814-1.65-2.234-.454-.212-.84-.524-1.142-.905-.19.34-.437.648-.708.939-1.198 1.289-3.704 1.862-5.654.292-.761-.613-1.893-.576-2.591.13-.38.385-.604.904-.604 1.434v.248c.002.463-.49.772-.914.563-.176-.086-.377-.09-.557-.018-.287.113-.531.483-.362.844.19.404 1.538 2.874 1.738 3.325.556-.193.817.203.874.367.44 1.253 1.06 2.435 1.842 3.515.84 1.162 2.141 1.828 3.567 1.828 1.427 0 2.727-.667 3.568-1.83zM16.19 20.874c-1.495.704-3.222.785-4.925 0v.732c0 1.355 1.104 2.457 2.462 2.457s2.463-1.102 2.463-2.457v-.732z" transform="translate(-706.000000, -682.000000) translate(706.000000, 682.000000) translate(14.000000, 6.000000)"/>
                </g>
            </g>
        </g>
    </g>
</svg>
