<svg version="1.1"
xmlns="http://www.w3.org/2000/svg"
xmlns:xlink="http://www.w3.org/1999/xlink"
x="0px" y="0px"
height="20.7"
width="20.7"
	 viewBox="0 0 20.7 20.7" >
<style type="text/css">
	.st0{fill:#fff;}
	.st1{fill:#0C0C0C;}
	.st2{fill:#cccccc;}
	.rotate-spinner {
    	animation: rotate-spinner 1s linear infinite;
    	transform-origin: center center;
	}
	@keyframes rotate-spinner{
		0%{
			transform: rotate(0deg);
		}
		100% {
			transform: rotate(360deg);
		}
	}
</style>
<path class="st0" d="M10.4,0.3C4.8,0.3,0.3,4.8,0.3,10.4s4.5,10.1,10.1,10.1s10.1-4.5,10.1-10.1S15.9,0.3,10.4,0.3z M10.4,16.5
	c-3.4,0-6.1-2.7-6.1-6.1S7,4.3,10.4,4.3s6.1,2.7,6.1,6.1S13.7,16.5,10.4,16.5z"/>
<path class="st1 rotate-spinner" d="M11.4,0.5V4c1,0.2,2,0.6,2.8,1.2l2.4-2.4C15.1,1.5,13.3,0.7,11.4,0.5z"/>
<path class="st2" d="M10.4,0.1C4.7,0.1,0.1,4.7,0.1,10.4s4.6,10.3,10.3,10.3s10.3-4.6,10.3-10.3S16.1,0.1,10.4,0.1z M18,4.1
	c1.2,1.5,2,3.3,2.2,5.2h-3.5c-0.2-1-0.6-2-1.2-2.8L18,4.1z M11.4,0.5c2,0.2,3.8,1,5.2,2.2l-2.4,2.4c-0.8-0.6-1.8-1-2.8-1.2V0.5z
	 M9.4,0.5V4c-1,0.2-2,0.6-2.8,1.2L4.1,2.7C5.6,1.5,7.4,0.7,9.4,0.5z M2.7,4.1l2.4,2.4C4.5,7.4,4.1,8.3,4,9.4H0.5
	C0.7,7.4,1.5,5.6,2.7,4.1z M2.7,16.6c-1.2-1.5-2-3.3-2.2-5.2H4c0.2,1,0.6,2,1.2,2.8L2.7,16.6z M9.4,20.2c-2-0.2-3.8-1-5.2-2.2
	l2.4-2.4c0.8,0.6,1.8,1,2.8,1.2V20.2z M4.4,10.4c0-3.3,2.7-6,6-6s6,2.7,6,6s-2.7,6-6,6S4.4,13.7,4.4,10.4z M11.4,20.2v-3.5
	c1-0.2,2-0.6,2.8-1.2l2.4,2.4C15.1,19.2,13.3,20,11.4,20.2z M18,16.6l-2.4-2.4c0.6-0.8,1-1.8,1.2-2.8h3.5C20,13.3,19.2,15.1,18,16.6
	z"/>
</svg>
