<svg xmlns="http://www.w3.org/2000/svg" width="131" height="45" viewBox="0 0 131 45">
    <g fill="none" fill-rule="evenodd">
        <g fill-rule="nonzero">
            <g>
                <g fill="#0AF">
                    <path d="M32.463 17.663L2.126 17.663 0 23.569 30.337 23.569zM35.795 8.887L5.401 8.887 3.218 14.794 33.612 14.794zM39.128 0L8.733 0 6.493 5.906 36.887 5.906z" transform="translate(-51.000000, -48.000000) translate(51.344737, 48.225000)"/>
                </g>
                <path fill="#002882" d="M53.607 44.269L42.23 8.83h7.987l4.424 15.413c1.264 4.556 1.953 6.975 2.815 10.8.747-3.656 1.264-5.4 2.7-10.575L64.582 8.83h7.641L60.674 44.27h-7.067zm30.509 0V14.794H73.659V8.83h29.073l-2.069 5.963h-9.25v29.475h-7.297zm28.038-21.263h4.08c1.264 0 1.896 0 2.528-.169 1.666-.506 2.758-1.968 2.758-3.993 0-2.419-1.15-3.432-2.758-3.938-.69-.168-1.38-.225-2.758-.225h-3.792v8.325h-.058zm.058 6.131v9.338h4.999c1.493 0 2.872-.113 3.907-1.069.976-.9 1.436-2.081 1.436-3.6 0-1.181-.287-2.25-.92-3.037-1.091-1.294-2.355-1.575-4.653-1.575h-4.77v-.056zm11.606-3.712v.113c1.379.506 2.7 1.35 3.39 1.912 2.126 1.744 3.045 3.994 3.045 6.919 0 4.837-2.643 8.325-6.952 9.45-1.322.393-2.7.506-5.286.506h-13.1V8.887h11.606c2.356 0 4.022.113 5.458.507 4.195 1.125 6.953 3.937 6.953 8.381 0 2.419-.862 4.388-2.299 5.738-.632.618-1.494 1.35-2.815 1.912" transform="translate(-51.000000, -48.000000) translate(51.344737, 48.225000)"/>
            </g>
        </g>
    </g>
</svg>
