<svg xmlns="http://www.w3.org/2000/svg"
width="53" height="44"
viewBox="0 0 53.03 43.55">
  <g>
    <g>
      <path d="M1,12.37a2,2,0,0,0,1.39.6H45a4.56,4.56,0,0,1,2.92,1.13,3.21,3.21,0,0,1,1.22,2.38v2.8H36.52A2.51,2.51,0,0,0,34,21.79h0V32.4a2.51,2.51,0,0,0,2.5,2.51H49.14v4.62a3.51,3.51,0,0,1-3.5,3.52H4.51A3.52,3.52,0,0,1,1,39.53V12.36Z" style="fill: #eaedf5;fill-rule: evenodd"/>
      <path d="M45.64,43.55H4.51a4,4,0,0,1-4-4V11.17l.85.84a1.48,1.48,0,0,0,1,.46H45a5.16,5.16,0,0,1,3.25,1.25,3.72,3.72,0,0,1,1.39,2.76v3.3H36.52a2,2,0,0,0-2,2V32.4a2,2,0,0,0,2,2H49.64v5.13A4,4,0,0,1,45.64,43.55ZM1.5,13.29V39.54a3,3,0,0,0,3,3H45.64a3,3,0,0,0,3-3V35.41H36.52a3,3,0,0,1-3-3V21.79a3,3,0,0,1,3-3H48.64v-2.3a2.7,2.7,0,0,0-1-2,4.06,4.06,0,0,0-2.59-1H2.39A2.25,2.25,0,0,1,1.5,13.29Z" style="fill: #71a5cf"/>
    </g>
    <g>
      <path d="M49.08,18.64a4.11,4.11,0,0,1,2.42,1.08,2.65,2.65,0,0,1,1,1.91V33.28a2.69,2.69,0,0,1-1,1.92,4.11,4.11,0,0,1-2.42,1.08h-13a3,3,0,0,1-2-1,2.93,2.93,0,0,1-.88-2V21.63a2.93,2.93,0,0,1,.88-2,3,3,0,0,1,2-1Z" style="fill: #eaedf5;fill-rule: evenodd"/>
      <path d="M49.08,36.78h-13a3.51,3.51,0,0,1-2.37-1.14,3.41,3.41,0,0,1-1-2.36V21.63a3.41,3.41,0,0,1,1-2.36,3.48,3.48,0,0,1,2.37-1.13h13a4.56,4.56,0,0,1,2.75,1.2A3.14,3.14,0,0,1,53,21.63V33.28a3.13,3.13,0,0,1-1.2,2.29A4.58,4.58,0,0,1,49.08,36.78Zm-13-17.64a2.52,2.52,0,0,0-1.65.83,2.4,2.4,0,0,0-.74,1.66V33.28a2.4,2.4,0,0,0,.74,1.66,2.49,2.49,0,0,0,1.65.84h13a3.68,3.68,0,0,0,2.09-1A2.24,2.24,0,0,0,52,33.28V21.63a2.22,2.22,0,0,0-.87-1.54,3.6,3.6,0,0,0-2.08-.95Z" style="fill: #71a5cf"/>
    </g>
    <path d="M43.71,23.72a3.73,3.73,0,0,1,2.64,1.09,3.78,3.78,0,0,1,1.1,2.65,3.74,3.74,0,1,1-3.74-3.74Z" style="fill: #71a5cf;fill-rule: evenodd"/>
    <path d="M23.72,4.58H4.4C2.19,4.58.5,6.86.5,9.33s.16,5.42,2.37,5.42H5.09m35.4,0h4.07V9.2c0-2.41-1.66-4.62-4-4.62H34.39" style="fill: #eaedf5;stroke: #71a5cf;stroke-linecap: round;stroke-linejoin: round;fill-rule: evenodd"/>
    <g>
      <path d="M31.52.65,40,14.71l-37.59,0L31.52.65Z" style="fill: #36d955;fill-rule: evenodd"/>
      <path d="M2.38,15.25l-.22-.95L31.72,0l9.14,15.21Zm29-13.95-26.77,13,34.53,0Z" style="fill: #71a5cf"/>
    </g>
  </g>
</svg>
